<svg xmlns="http://www.w3.org/2000/svg" height="24" viewBox="0 -960 960 960" width="24"><path d="M191.001-172.616q-17.75 0-30.375-12.628-12.625-12.629-12.625-30.384 0-17.756 12.625-30.371 12.625-12.615 30.375-12.615h29.308v-300.463q0-88.692 54.807-158.692 54.808-70 140.885-92.307v-16.923q0-26.667 18.687-45.333 18.688-18.667 45.384-18.667 26.697 0 45.312 18.667 18.615 18.666 18.615 45.333v16.923q86.077 22.307 141.385 91.609 55.307 69.301 55.307 159.39v300.463h29.308q17.75 0 30.375 12.628 12.625 12.629 12.625 30.384 0 17.756-12.625 30.371-12.625 12.615-30.375 12.615H191.001ZM481-495.692Zm-1.103 447.383q-34.82 0-59.512-24.765t-24.692-59.542h168.614q0 34.923-24.796 59.615-24.795 24.692-59.614 24.692Zm-173.59-210.305h348.386v-300.463q0-72.462-51.195-123.077-51.196-50.616-123.578-50.616t-122.997 50.616q-50.616 50.615-50.616 123.077v300.463Z"/></svg>