<?xml version="1.0" encoding="utf-8"?>
<!-- Generator: Adobe Illustrator 27.5.0, SVG Export Plug-In . SVG Version: 6.00 Build 0)  -->
<svg version="1.1" xmlns="http://www.w3.org/2000/svg" xmlns:xlink="http://www.w3.org/1999/xlink" x="0px" y="0px"
	 viewBox="0 0 750 500" style="enable-background:new 0 0 750 500;" xml:space="preserve">
<g id="BACKGROUND">
	<rect id="XMLID_193_" style="fill:#FFFFFF;" width="750" height="500"/>
</g>
<g id="OBJECTS">
	<g id="XMLID_1056_">
		<rect id="XMLID_5507_" x="401.932" y="359.674" width="298.068" height="2.057"/>
		<g id="XMLID_4810_">
			<g id="XMLID_4798_">
				<g id="XMLID_4792_">
					<path id="XMLID_4824_" style="fill:#D35A24;" d="M578.677,127.687v6.03h-5.376v-6.03c0-1.484,1.202-2.687,2.687-2.687h0.002
						C577.474,125,578.677,126.202,578.677,127.687z"/>
					<path id="XMLID_4796_" style="fill:#F6921E;" d="M577.329,128.017c0,0.741-0.6,1.341-1.341,1.341
						c-0.741,0-1.341-0.6-1.341-1.341c0-0.741,0.6-1.341,1.341-1.341C576.729,126.676,577.329,127.277,577.329,128.017z"/>
					<rect id="XMLID_4822_" x="573.301" y="130.26" width="5.376" height="3.457"/>
				</g>
				<g id="XMLID_4802_">
					<path id="XMLID_4809_" style="fill:#D35A24;" d="M610.431,127.687v6.03h-5.376v-6.03c0-1.484,1.202-2.687,2.687-2.687h0.002
						C609.228,125,610.431,126.202,610.431,127.687z"/>
					<path id="XMLID_4808_" style="fill:#F6921E;" d="M609.084,128.017c0,0.741-0.6,1.341-1.341,1.341
						c-0.74,0-1.341-0.6-1.341-1.341c0-0.741,0.6-1.341,1.341-1.341C608.483,126.676,609.084,127.277,609.084,128.017z"/>
					<rect id="XMLID_4806_" x="605.055" y="130.26" width="5.376" height="3.457"/>
				</g>
			</g>
			<rect id="XMLID_4743_" x="565.297" y="131.273" style="fill:#F6921E;" width="53.138" height="76.719"/>
			<rect id="XMLID_4924_" x="567.377" y="133.354" style="fill:#D35A24;" width="48.977" height="72.557"/>
			<polygon id="XMLID_4851_" points="616.354,133.354 616.354,136.954 567.377,135.181 567.377,133.354 			"/>
			<g id="XMLID_4823_">
				<rect id="XMLID_4843_" x="568.748" y="138.816" style="fill:#FBC222;" width="7.656" height="29.596"/>
				<rect id="XMLID_4830_" x="568.748" y="147.428" style="fill:#271977;" width="7.656" height="12.37"/>
				<rect id="XMLID_4811_" x="570.466" y="140.492" style="fill:#271977;" width="4.22" height="1.561"/>
			</g>
			<g id="XMLID_4829_">
				<rect id="XMLID_4842_" x="583.285" y="142.92" style="fill:#39B597;" width="6.594" height="25.492"/>
				<rect id="XMLID_4840_" x="583.285" y="150.338" style="fill:#FFFFFF;" width="6.594" height="10.655"/>
				<rect id="XMLID_4839_" x="584.765" y="144.363" style="fill:#FFFFFF;" width="3.635" height="1.344"/>
			</g>
			<g id="XMLID_4827_">
				<rect id="XMLID_4825_" x="576.405" y="140.492" style="fill:#462ABC;" width="6.506" height="27.92"/>
				<rect id="XMLID_4826_" x="577.859" y="147.804" style="fill:#FBC222;" width="3.598" height="13.295"/>
			</g>
			<g id="XMLID_4844_">
				<rect id="XMLID_4849_" x="590.682" y="137.833" style="fill:#FFFFFF;" width="6.506" height="30.579"/>
				<rect id="XMLID_4845_" x="592.136" y="145.842" style="fill:#EC1C24;" width="3.598" height="14.561"/>
			</g>
			<g id="XMLID_4828_">
				<rect id="XMLID_4905_" x="599.963" y="147.805" style="fill:#39B597;" width="13.064" height="20.606"/>
				<polygon id="XMLID_4900_" points="613.027,158.643 613.027,162.923 599.963,162.139 599.963,158.643 				"/>
				<polygon id="XMLID_4901_" points="613.027,147.805 613.027,152.118 599.963,150.938 599.963,147.805 				"/>
				<rect id="XMLID_4899_" x="599.963" y="155.001" style="fill:#FBC222;" width="13.064" height="6.821"/>
				<rect id="XMLID_4850_" x="599.501" y="146.446" style="fill:#39B597;" width="13.989" height="3.892"/>
			</g>
			<polygon id="XMLID_4920_" points="616.354,169.633 616.354,173.233 567.377,171.459 567.377,169.633 			"/>
			
				<rect id="XMLID_4745_" x="590.545" y="145.144" transform="matrix(-1.836970e-16 1 -1 -1.836970e-16 761.4977 -422.2338)" style="fill:#F6921E;" width="2.641" height="48.976"/>
		</g>
		<g id="XMLID_4916_">
			<g id="XMLID_4961_">
				<g id="XMLID_4966_">
					<path id="XMLID_4969_" style="fill:#271977;" d="M638.464,127.687v6.03h-5.376v-6.03c0-1.484,1.202-2.687,2.687-2.687h0.002
						C637.261,125,638.464,126.202,638.464,127.687z"/>
					<path id="XMLID_4968_" style="fill:#462ABC;" d="M637.116,128.017c0,0.741-0.6,1.341-1.341,1.341
						c-0.741,0-1.341-0.6-1.341-1.341c0-0.741,0.6-1.341,1.341-1.341C636.516,126.676,637.116,127.277,637.116,128.017z"/>
					<rect id="XMLID_4967_" x="633.088" y="130.26" width="5.376" height="3.457"/>
				</g>
				<g id="XMLID_4962_">
					<path id="XMLID_4965_" style="fill:#271977;" d="M670.217,127.687v6.03h-5.376v-6.03c0-1.484,1.202-2.687,2.687-2.687h0.002
						C669.015,125,670.217,126.202,670.217,127.687z"/>
					<path id="XMLID_4964_" style="fill:#462ABC;" d="M668.87,128.017c0,0.741-0.6,1.341-1.341,1.341c-0.74,0-1.341-0.6-1.341-1.341
						c0-0.741,0.6-1.341,1.341-1.341C668.27,126.676,668.87,127.277,668.87,128.017z"/>
					<rect id="XMLID_4963_" x="664.842" y="130.26" width="5.376" height="3.457"/>
				</g>
			</g>
			<rect id="XMLID_4960_" x="625.084" y="131.273" style="fill:#462ABC;" width="53.138" height="76.719"/>
			<rect id="XMLID_4959_" x="627.164" y="133.354" style="fill:#271977;" width="48.977" height="72.557"/>
			<g id="XMLID_4921_">
				<rect id="XMLID_4936_" x="630.024" y="151.393" style="fill:#FBC222;" width="33.627" height="17.258"/>
				<polygon id="XMLID_4926_" points="663.651,160.469 663.651,164.054 630.024,163.397 630.024,160.469 				"/>
				<polygon id="XMLID_4925_" points="663.651,151.393 663.651,155.005 630.024,154.017 630.024,151.393 				"/>
				<rect id="XMLID_4923_" x="630.024" y="157.419" style="fill:#FFFFFF;" width="33.627" height="5.713"/>
				<rect id="XMLID_4922_" x="628.833" y="150.255" style="fill:#FBC222;" width="36.008" height="3.26"/>
			</g>
			<polygon id="XMLID_4958_" points="676.141,133.354 676.141,136.954 627.164,135.181 627.164,133.354 			"/>
			<polygon id="XMLID_4918_" points="676.141,169.633 676.141,173.233 627.164,171.459 627.164,169.633 			"/>
			
				<rect id="XMLID_4917_" x="650.332" y="145.144" transform="matrix(-1.836970e-16 1 -1 -1.836970e-16 821.2845 -482.0206)" style="fill:#462ABC;" width="2.641" height="48.976"/>
			<g id="XMLID_4912_">
				<rect id="XMLID_4915_" x="646.402" y="176.314" style="fill:#39B597;" width="7.656" height="29.596"/>
				<rect id="XMLID_4914_" x="646.402" y="184.927" width="7.656" height="12.37"/>
				<rect id="XMLID_4913_" x="648.12" y="177.99" width="4.22" height="1.561"/>
			</g>
			<g id="XMLID_4908_">
				
					<rect id="XMLID_4911_" x="655.132" y="189.554" transform="matrix(0.3711 -0.9286 0.9286 0.3711 240.9463 741.4691)" style="fill:#462ABC;" width="25.492" height="6.594"/>
				
					<rect id="XMLID_4910_" x="662.551" y="189.554" transform="matrix(0.3711 -0.9286 0.9286 0.3711 240.9442 741.4675)" style="fill:#FBC222;" width="10.655" height="6.594"/>
				
					<rect id="XMLID_4909_" x="670.006" y="182.308" transform="matrix(0.9286 0.3711 -0.3711 0.9286 115.8902 -236.2653)" style="fill:#FFFFFF;" width="3.635" height="1.344"/>
			</g>
			<g id="XMLID_4904_">
				<rect id="XMLID_4907_" x="654.058" y="177.99" style="fill:#FBC222;" width="6.506" height="27.92"/>
				<rect id="XMLID_4906_" x="655.512" y="185.303" style="fill:#462ABC;" width="3.598" height="13.295"/>
			</g>
			<g id="XMLID_4853_">
				<rect id="XMLID_4903_" x="628.544" y="179.416" style="fill:#FFFFFF;" width="16.797" height="26.495"/>
				<polygon id="XMLID_4902_" points="645.341,193.35 645.341,198.853 628.544,197.845 628.544,193.35 				"/>
				<polygon id="XMLID_4856_" points="645.341,179.416 645.341,184.96 628.544,183.444 628.544,179.416 				"/>
				<rect id="XMLID_4855_" x="628.544" y="188.667" style="fill:#EC1C24;" width="16.797" height="8.77"/>
				<rect id="XMLID_4854_" x="627.949" y="177.667" style="fill:#FFFFFF;" width="17.986" height="5.005"/>
			</g>
		</g>
		<g id="XMLID_4546_">
			<polygon id="XMLID_4640_" points="611.844,251.868 534.215,251.868 546.065,197.938 623.694,197.938 			"/>
			<polygon id="XMLID_4641_" style="fill:#462ABC;" points="535.769,249.555 546.603,200.25 619.497,200.25 608.663,249.555 			"/>
			<polygon id="XMLID_4989_" style="fill:#FBC222;" points="598.265,201.771 593.616,222.93 612.869,222.93 617.518,201.771 			"/>
			<g id="XMLID_4972_">
				<path id="XMLID_4974_" style="fill:#752B31;" d="M583.033,206.243c-0.308-0.524-0.864-0.865-1.428-0.902
					c-0.598-0.04-0.794,0.022-1.204-0.555c-0.249-0.35-0.841-0.673-1.242-0.6c-0.136,0.024-0.266,0.085-0.402,0.099
					c-0.323,0.033-0.612-0.194-0.912-0.325c-0.515-0.225-1.126-0.164-1.599,0.16c-0.189,0.129-0.355,0.296-0.541,0.43
					c-0.421,0.303-0.924,0.425-1.39,0.63c-0.467,0.205-0.935,0.538-1.099,1.064c-0.096,0.307-0.075,0.644-0.152,0.958
					c-0.17,0.691-0.791,1.19-0.88,1.899c-0.045,0.355,0.052,0.711,0.059,1.068c0.014,0.792-0.401,1.661-0.015,2.325
					c0.273,0.469,0.863,0.636,1.094,1.132c0.091,0.197,0.115,0.425,0.206,0.622c0.273,0.595,1.008,0.679,1.608,0.594
					c0.408-0.058,0.812-0.158,1.204-0.298c0.22-0.079,0.454-0.172,0.677-0.107c0.321,0.093,0.504,0.475,0.805,0.632
					c0.394,0.206,0.874-0.025,1.293,0.106c0.501,0.156,0.837,0.799,1.359,0.794c0.315-0.003,0.582-0.25,0.818-0.483
					c0.398-0.392,0.795-0.785,1.193-1.177c0.178-0.175,0.358-0.355,0.478-0.583c0.128-0.245,0.176-0.528,0.248-0.799
					c0.227-0.853,0.713-1.707,0.501-2.561c-0.094-0.379-0.319-0.7-0.457-1.062c-0.154-0.404-0.196-0.859-0.121-1.291
					c0.046-0.264,0.135-0.521,0.152-0.79C583.305,206.877,583.203,206.532,583.033,206.243z"/>
				<path id="XMLID_4996_" style="fill:#F68080;" d="M566.282,229.553l-1.163,2.716c-0.119,0.284-0.243,0.561-0.371,0.834
					c-2.513,5.341-6.612,8.376-9.152,5.687c-2.208-2.332-5.3-10.025-6.31-12.631c-0.119-0.135-0.236-0.273-0.351-0.412
					c-1.358-1.647-2.719-3.294-4.077-4.94c-0.224-0.273-0.925-1.45-0.579-1.784c0.568-0.547,2.7,2.013,3.037,2.4
					c-0.696-1.127-1.393-2.254-2.089-3.383c-0.181-0.291-0.364-0.593-0.408-0.932c-0.044-0.339,0.096-0.726,0.408-0.866
					c0.502-0.22,1.005,0.282,1.324,0.728c0.783,1.097,1.569,2.194,2.354,3.291c-0.536-1.25-1.113-2.496-1.482-3.809
					c-0.117-0.41-0.552-1.647-0.25-2.02c0.646-0.792,1.521,0.813,1.711,1.267c0.607,1.443,1.214,2.886,1.821,4.331
					c-0.3-1.594-0.465-3.213-0.485-4.833c-0.007-0.454,0.073-1.015,0.499-1.159c0.589-0.199,0.992,0.586,1.109,1.196
					c0.383,2.032,0.667,4.081,0.852,6.14c0.309-0.912,0.799-1.759,1.432-2.485c0.137-0.156,0.3-0.316,0.506-0.339
					c0.534-0.055,0.678,0.728,0.554,1.251c-0.323,1.383-0.974,2.664-1.317,4.04c-0.009,0.03-0.014,0.062-0.021,0.092l4.262,8.903
					l0.985-1.883l0.941-1.805L566.282,229.553z"/>
				<path id="XMLID_4994_" d="M566.282,229.553l-1.163,2.716c-0.119,0.284-0.243,0.561-0.371,0.834
					c-2.875-0.536-4.675-1.516-5.666-2.151l0.941-1.805L566.282,229.553z"/>
				<path id="XMLID_4993_" style="fill:#F68080;" d="M592.169,249.555h-6.012c0,0,0.851-12.305,0.329-15.612
					c-0.108-0.68-0.229-1.283-0.357-1.809c-0.492-2.048-1.054-2.987-1.054-2.987l6.704,0.825c0,0,0.208,1.337,0.483,3.3
					C592.791,237.029,592.123,246.244,592.169,249.555z"/>
				<path id="XMLID_4991_" d="M592.262,233.273c-2.886,0.367-4.975-0.465-6.133-1.138c-0.492-2.048-1.054-2.987-1.054-2.987
					l6.704,0.825C591.779,229.972,591.987,231.31,592.262,233.273z"/>
				<path id="XMLID_4990_" style="fill:#FFFFFF;" d="M593.616,231.31c0,0-2.393,0.66-4.727,0.644
					c-1.127-0.007-2.238-0.172-3.06-0.644c-2.519-1.452-4.569-12.695-4.569-12.695s0.486,0.115,1.267,0.398
					c0.002,0,0.007,0.002,0.009,0.002C585.343,220.039,591.944,223.257,593.616,231.31z"/>
				<path id="XMLID_4987_" style="opacity:0.3;fill:#368CAD;" d="M588.888,231.953c-1.127-0.007-2.238-0.172-3.06-0.644
					c-2.519-1.452-4.569-12.695-4.569-12.695s0.486,0.115,1.267,0.398c0.002,0,0.007,0.002,0.009,0.002
					c1.377,0.742,3.22,2.261,4.578,5.346C588.261,226.967,588.724,229.741,588.888,231.953z"/>
				<path id="XMLID_4976_" style="fill:#FFFFFF;" d="M558.096,229.977c0,0,2.274,0.995,4.587,1.313
					c1.116,0.154,2.239,0.15,3.12-0.199c2.701-1.077,6.339-11.911,6.339-11.911s-0.497,0.044-1.31,0.213
					c-0.002,0-0.007,0.001-0.009,0.001C567.896,220.006,560.903,222.246,558.096,229.977z"/>
				<path id="XMLID_4975_" style="opacity:0.3;fill:#368CAD;" d="M562.682,231.29c1.116,0.154,2.239,0.15,3.12-0.199
					c2.701-1.077,6.339-11.911,6.339-11.911s-0.497,0.044-1.31,0.213c-0.002,0-0.007,0.001-0.009,0.001
					c-1.468,0.538-3.511,1.777-5.296,4.636C564.017,226.445,563.162,229.124,562.682,231.29z"/>
				<path id="XMLID_4750_" style="fill:#FFFFFF;" d="M575.091,218.289c0,0-5.888,0.728-8.866,6.912
					c-2.978,6.184-5.654,24.354-5.654,24.354h24.371c0,0,3.156-20.575,1.324-25.385c-1.832-4.81-6.124-6.017-6.124-6.017
					L575.091,218.289z"/>
				<path id="XMLID_4981_" style="fill:#F68080;" d="M573.847,213.226c-0.326,0.03-0.659-0.135-0.943-0.392
					c-0.616-0.553-1.005-1.538-0.59-1.907c0.26-0.231,0.546-0.2,0.787-0.088c0.323,0.146,0.569,0.438,0.569,0.438L573.847,213.226z"
					/>
				<path id="XMLID_4978_" d="M573.847,213.226c-0.326,0.03-0.659-0.135-0.943-0.392c-0.018-0.717,0.109-1.528,0.198-1.995
					c0.323,0.146,0.569,0.438,0.569,0.438L573.847,213.226z"/>
				<path id="XMLID_4971_" style="fill:#F68080;" d="M581.898,213.508c0.323,0.053,0.666-0.089,0.968-0.325
					c0.654-0.509,1.11-1.464,0.721-1.861c-0.243-0.249-0.531-0.238-0.779-0.143c-0.333,0.123-0.598,0.397-0.598,0.397
					L581.898,213.508z"/>
				<path id="XMLID_4970_" d="M581.898,213.508c0.323,0.053,0.666-0.089,0.968-0.325c0.068-0.714-0.002-1.532-0.058-2.004
					c-0.333,0.123-0.598,0.397-0.598,0.397L581.898,213.508z"/>
				<path id="XMLID_4979_" style="fill:#F68080;" d="M580.036,219.684c-2.823,2.078-5.951-0.208-5.951-0.208l0.588-2.867
					l0.299-1.456l4.711,0.165l0.235,2.912L580.036,219.684z"/>
				<path id="XMLID_4977_" d="M579.917,218.229c-2.355,0.44-4.208-0.72-5.244-1.62l0.299-1.456l4.711,0.165L579.917,218.229z"/>
				<path id="XMLID_2179_" style="fill:#F68080;" d="M582.479,212.157c-0.313,2.891-2.603,5.014-5.114,4.742
					c-2.512-0.272-4.294-2.836-3.982-5.727c0.313-2.891,2.603-5.014,5.114-4.742C581.009,206.703,582.792,209.266,582.479,212.157z"
					/>
				<path id="XMLID_4973_" style="fill:#752B31;" d="M575.031,211.561c0.273-0.383,0.4-0.931,0.84-1.095
					c0.455-0.17,0.957,0.193,1.435,0.103c0.565-0.107,0.844-0.78,1.371-1.007c0.31-0.134,0.6-0.036,0.913-0.084
					c0.225-0.034,0.447-0.253,0.67-0.055c0.13,0.116,0.184,0.292,0.244,0.456c0.06,0.164,0.144,0.336,0.302,0.41
					c0.09,0.042,0.193,0.046,0.288,0.075c0.336,0.101,0.506,0.475,0.575,0.819c0.037,0.183,0.058,0.372,0.138,0.54
					s0.234,0.317,0.42,0.326c0.329,0.015,0.513-0.372,0.573-0.695c0.324-1.744-0.467-3.795-1.997-4.754
					c-1.431-0.897-3.264-1.125-4.871-0.606c-0.802,0.259-1.604,0.764-1.86,1.567c-0.085,0.268-0.105,0.555-0.21,0.816
					c-0.223,0.556-0.802,0.926-0.964,1.503c-0.057,0.204-0.057,0.42-0.056,0.632c0.002,0.53-0.258,1.127,0.305,1.485
					C573.738,212.37,574.644,212.104,575.031,211.561z"/>
				<polygon id="XMLID_4980_" style="fill:#EC1C24;" points="580.636,231.953 570.241,231.953 570.864,227.339 581.259,227.339 				
					"/>
			</g>
			<g id="XMLID_4985_">
				<path id="XMLID_4986_" d="M604.568,209.356c-0.355,0.142-0.534,0.317-0.915,0.125c-0.787-0.395-1.391-1.123-1.356-2.058
					c0.011-0.298,0.092-0.589,0.195-0.868c0.386-1.042,1.211-2.017,2.31-2.176c0.246-0.036,0.497-0.029,0.745-0.023
					c0.273,0.007,0.549,0.014,0.816,0.072c1.088,0.232,1.853,1.25,2.19,2.31c0.107,0.335,0.181,0.685,0.164,1.036
					c-0.029,0.596-0.336,1.172-0.814,1.529c-0.478,0.357-1.118,0.486-1.697,0.344C605.657,209.512,605.095,209.145,604.568,209.356z
					"/>
				<path id="XMLID_5030_" style="fill:#F68080;" d="M598.154,222.93l1.159-4.41l0.408-1.554l-2.908-0.536
					c0,0-0.137,0.347-0.355,0.942c-0.424,1.159-1.153,3.258-1.761,5.559H598.154z"/>
				<path id="XMLID_5017_" d="M599.72,216.965l-0.408,1.554c-0.857-0.187-2.065-0.75-2.856-1.149
					c0.218-0.595,0.355-0.942,0.355-0.942L599.72,216.965z"/>
				<path id="XMLID_5023_" style="fill:#F68080;" d="M609.55,218.832c0.119,0.755,0.089,2.488,0.025,4.098h2.8
					c0.055-1.662,0.088-3.433-0.051-4.42c-0.132-0.943-0.232-1.585-0.232-1.585l-3.22-0.396c0,0,0.27,0.451,0.506,1.434
					C609.44,218.216,609.498,218.506,609.55,218.832z"/>
				<path id="XMLID_5009_" d="M612.324,218.51c-1.386,0.176-2.389-0.223-2.946-0.547c-0.237-0.983-0.506-1.434-0.506-1.434
					l3.22,0.396C612.092,216.925,612.192,217.567,612.324,218.51z"/>
				<path id="XMLID_5008_" style="fill:#39B597;" d="M612.974,217.567c0,0-1.15,0.317-2.271,0.309
					c-0.541-0.003-1.075-0.082-1.47-0.309c-1.21-0.697-2.195-6.098-2.195-6.098s0.233,0.055,0.608,0.191
					c0.001,0,0.003,0.001,0.004,0.001C609.001,212.154,612.171,213.699,612.974,217.567z"/>
				<path id="XMLID_5007_" style="opacity:0.5;fill:#31A186;" d="M610.704,217.876c-0.541-0.003-1.075-0.082-1.47-0.309
					c-1.21-0.697-2.195-6.098-2.195-6.098s0.233,0.055,0.608,0.191c0.001,0,0.003,0.001,0.004,0.001
					c0.661,0.357,1.547,1.086,2.199,2.568C610.402,215.481,610.625,216.814,610.704,217.876z"/>
				<path id="XMLID_5006_" style="fill:#39B597;" d="M595.914,216.927c0,0,1.092,0.478,2.203,0.631
					c0.536,0.074,1.076,0.072,1.499-0.096c1.297-0.517,3.044-5.721,3.044-5.721s-0.239,0.021-0.629,0.102
					c-0.001,0-0.003,0.001-0.005,0.001C600.621,212.138,597.262,213.214,595.914,216.927z"/>
				<path id="XMLID_5005_" style="opacity:0.5;fill:#31A186;" d="M598.117,217.558c0.536,0.074,1.076,0.072,1.499-0.096
					c1.297-0.517,3.044-5.721,3.044-5.721s-0.239,0.021-0.629,0.102c-0.001,0-0.003,0.001-0.005,0.001
					c-0.705,0.258-1.686,0.853-2.544,2.227C598.758,215.231,598.347,216.518,598.117,217.558z"/>
				<path id="XMLID_5022_" style="fill:#39B597;" d="M609.26,222.93c0.361-3.089,0.726-7.371,0.185-8.792
					c-0.88-2.31-2.942-2.89-2.942-2.89l-2.426,0.065c0,0-2.828,0.35-4.258,3.32c-0.844,1.753-1.638,5.511-2.146,8.297H609.26z"/>
				<path id="XMLID_5003_" style="fill:#F68080;" d="M603.479,208.881c-0.156,0.014-0.316-0.065-0.453-0.188
					c-0.296-0.266-0.483-0.739-0.283-0.916c0.125-0.111,0.262-0.096,0.378-0.042c0.155,0.07,0.273,0.21,0.273,0.21L603.479,208.881z
					"/>
				<path id="XMLID_5002_" d="M603.479,208.881c-0.156,0.014-0.316-0.065-0.453-0.188c-0.009-0.345,0.052-0.734,0.095-0.958
					c0.155,0.07,0.273,0.21,0.273,0.21L603.479,208.881z"/>
				<path id="XMLID_5001_" style="fill:#F68080;" d="M607.346,209.017c0.155,0.025,0.32-0.043,0.465-0.156
					c0.314-0.244,0.533-0.703,0.346-0.894c-0.117-0.119-0.255-0.114-0.374-0.069c-0.16,0.059-0.287,0.191-0.287,0.191
					L607.346,209.017z"/>
				<path id="XMLID_5000_" d="M607.346,209.017c0.155,0.025,0.32-0.043,0.465-0.156c0.033-0.343-0.001-0.736-0.028-0.962
					c-0.16,0.059-0.287,0.191-0.287,0.191L607.346,209.017z"/>
				<path id="XMLID_5508_" style="fill:#F68080;" d="M603.806,211.331c-0.089-0.048-0.655,0.229-0.78,0.845
					c-0.125,0.617,1.647,3.719,1.647,3.719s2.12-2.659,2.177-3.738c0.058-1.079-1.469-0.878-1.469-0.878L603.806,211.331z"/>
				<path id="XMLID_4999_" style="fill:#F68080;" d="M606.452,211.983c-1.356,0.998-2.858-0.1-2.858-0.1l0.283-1.377l0.143-0.699
					l2.263,0.079l0.113,1.399L606.452,211.983z"/>
				<path id="XMLID_4998_" d="M606.395,211.284c-1.131,0.211-2.021-0.346-2.519-0.778l0.143-0.699l2.263,0.079L606.395,211.284z"/>
				<path id="XMLID_4997_" style="fill:#F68080;" d="M607.625,208.368c-0.15,1.388-1.25,2.408-2.456,2.278
					c-1.206-0.131-2.063-1.362-1.912-2.751s1.25-2.408,2.456-2.278C606.919,205.748,607.776,206.98,607.625,208.368z"/>
				<path id="XMLID_4983_" d="M606.039,206.51c0.338,0.411,0.861,0.694,1.38,0.799c0.443,0.089,0.783-0.252,0.592-0.701
					c-0.175-0.412-0.538-0.71-0.887-0.991c-0.332-0.267-0.675-0.54-1.084-0.662c-0.831-0.248-1.729,0.196-2.331,0.82
					c-0.332,0.344-0.607,0.751-0.751,1.207c-0.088,0.279-0.185,0.691-0.059,0.981c0.193,0.445,0.568,0.183,0.91,0.085
					C604.705,207.79,605.5,207.281,606.039,206.51z"/>
			</g>
			<polygon id="XMLID_4642_" points="611.457,253.05 509.066,253.05 510.108,249.335 612.499,249.335 			"/>
			<path id="XMLID_4643_" style="fill:#333333;" d="M582.392,198.974c0,0.32-0.259,0.579-0.579,0.579s-0.579-0.259-0.579-0.579
				s0.259-0.579,0.579-0.579S582.392,198.654,582.392,198.974z"/>
			<rect id="XMLID_4982_" x="590.687" y="250.553" style="fill:#333333;" width="5.703" height="1.282"/>
			<rect id="XMLID_4984_" x="597.932" y="250.553" style="fill:#333333;" width="2.158" height="1.282"/>
		</g>
		<g id="XMLID_4646_">
			<path id="XMLID_4658_" d="M527.063,253.05h-23.284c1.593-2.118,7.283-8.796,15.684-8.669c0.423,0.005,0.855,0.028,1.295,0.072
				C529.124,245.267,527.979,250.691,527.063,253.05z"/>
			<path id="XMLID_4656_" style="fill:#333333;" d="M527.063,253.05h-12.118c1.115-5.182,3.232-7.619,4.518-8.669
				c0.423,0.005,0.855,0.028,1.295,0.072C529.124,245.267,527.979,250.691,527.063,253.05z"/>
		</g>
		<g id="XMLID_4626_">
			<g id="XMLID_4625_">
				<polygon id="XMLID_4647_" style="fill:#999999;" points="458.613,300.63 457.39,306.045 455.716,313.456 441.817,375 
					433.743,375 447.642,313.456 449.316,306.045 450.539,300.63 				"/>
				<polygon id="XMLID_4644_" points="458.613,300.63 457.39,306.045 455.716,313.456 447.642,313.456 449.316,306.045 
					450.539,300.63 				"/>
			</g>
			<g id="XMLID_4628_">
				<polygon id="XMLID_4639_" style="fill:#999999;" points="507.504,300.63 508.727,306.045 510.401,313.456 524.3,375 
					532.374,375 518.475,313.456 516.801,306.045 515.578,300.63 				"/>
				<polygon id="XMLID_4638_" points="507.504,300.63 508.727,306.045 510.401,313.456 518.475,313.456 516.801,306.045 
					515.578,300.63 				"/>
			</g>
			<path id="XMLID_4652_" style="fill:#666666;" d="M529.08,295.025v2.368c0,0.305-0.012,0.608-0.035,0.911
				c-0.194,2.548-1.198,4.976-2.876,6.923c-1.14,1.323-2.539,2.365-4.09,3.075c-1.549,0.71-3.253,1.091-4.999,1.091h-68.735
				c-3.727,0-7.045-2.358-8.268-5.878l-29.268-84.208c-1.161-3.339,0.707-6.969,4.097-7.963c0.395-0.118,0.796-0.192,1.193-0.227
				c0.185-0.016,0.37-0.025,0.553-0.025c2.583,0,4.98,1.63,5.852,4.194l26.156,76.948c0.566,1.669,2.134,2.791,3.896,2.791H529.08z"
				/>
			<path id="XMLID_4650_" style="opacity:0.5;fill:#333333;" d="M529.08,295.025v2.368c0,0.305-0.012,0.608-0.035,0.911
				c-0.606,0.425-1.249,0.795-1.919,1.103c-1.551,0.712-3.253,1.091-5.001,1.091h-68.733c-3.727,0-7.045-2.361-8.268-5.88
				l-29.025-83.501c0.185-0.016,0.37-0.025,0.553-0.025c2.583,0,4.98,1.63,5.852,4.194l26.156,76.948
				c0.566,1.669,2.134,2.791,3.896,2.791H529.08z"/>
		</g>
		<g id="XMLID_2134_">
			<path id="XMLID_4700_" d="M486.318,201.268c-0.308-0.105-0.224-2.804-0.224-2.804s5.236-1.805,12.875,3.476l-2.296,2.142
				L486.318,201.268z"/>
			<g id="XMLID_4654_">
				<path id="XMLID_4752_" style="fill:#F68080;" d="M502.642,193.506c-2.294,4.102-6.243,5.644-6.243,5.644l-0.469,1.39
					l-1.845,5.454l-7.767-1.91l1.917-5.129l1.188-3.179c0,0-0.763-3.417-0.603-6.185c0.19-3.253,0.095-3.651-0.416-5.639
					c-0.511-1.991,2.916-2.046,4.16,2.895c0,0,1.575-5.041,1.676-7.584c0.102-2.543,1.47-3.082,1.922-3.006
					c0.451,0.079,1.528,0.317,1.685,2.548c0,0,0.303-3.087,1.769-3.087c1.466,0,1.743,1.998,1.616,3.39c0,0,0.825-1.235,1.618-0.964
					c0.795,0.273,1.373,0.913,1.103,2.927c0,0,0.934-0.358,1.341,0.735C505.669,182.821,504.934,189.406,502.642,193.506z"/>
				
					<path id="XMLID_4360_" style="fill:none;stroke:#231F20;stroke-width:0.3491;stroke-linecap:round;stroke-linejoin:round;stroke-miterlimit:10;" d="
					M497.846,178.805c0,0-0.154,3.45-1.453,7.709"/>
				
					<path id="XMLID_4346_" style="fill:none;stroke:#231F20;stroke-width:0.3491;stroke-linecap:round;stroke-linejoin:round;stroke-miterlimit:10;" d="
					M492.564,186.846l0.292,1.748c0,0,4.652-1.055,7.226,2.261"/>
				
					<path id="XMLID_4655_" style="fill:none;stroke:#231F20;stroke-width:0.3491;stroke-linecap:round;stroke-linejoin:round;stroke-miterlimit:10;" d="
					M501.232,179.107c0,0-0.27,4.201-1.699,8.253"/>
				
					<path id="XMLID_4657_" style="fill:none;stroke:#231F20;stroke-width:0.3491;stroke-linecap:round;stroke-linejoin:round;stroke-miterlimit:10;" d="
					M503.953,181.07c0,0-0.217,4.533-1.618,7.018"/>
			</g>
			<path id="XMLID_4748_" d="M495.93,200.54l-1.845,5.454l-7.767-1.91l1.917-5.129C489.451,199.407,492.237,200.29,495.93,200.54z"
				/>
			<path id="XMLID_4793_" style="fill:#F6921E;" d="M498.968,201.941c0,0-3.202,10.558-6.067,18.96
				c-1.304,3.836-2.539,7.221-3.364,8.951c-0.782,1.632-1.901,2.937-3.235,3.896c-3.068,2.22-7.27,2.634-11.089,1.121
				c-0.132-0.053-0.264-0.106-0.396-0.164c-5.565-2.419-20.678-29.427-20.678-29.427l7.528-8.292c0,0,0.396,0.504,1.061,1.357
				c0,0.002,0.002,0.005,0.007,0.009c3.656,4.68,15.443,19.758,15.309,19.46c-0.16-0.356,8.049-19.346,8.049-19.346
				S491.735,202.614,498.968,201.941z"/>
			<path id="XMLID_4746_" style="opacity:0.3;fill:#D35A24;" d="M492.901,220.901c-1.304,3.836-2.539,7.221-3.364,8.951
				c-0.782,1.632-1.901,2.937-3.235,3.896c-3.068,2.22-7.27,2.634-11.089,1.121v-6.93L492.901,220.901z"/>
			<path id="XMLID_4747_" style="opacity:0.3;fill:#D35A24;" d="M486.302,233.748c-3.175,2.296-7.563,2.661-11.485,0.957
				c-5.565-2.419-20.678-29.427-20.678-29.427l7.528-8.292c0,0,0.396,0.504,1.061,1.357c0,0.002,0.002,0.005,0.007,0.009
				C468.667,206.968,480.033,224.205,486.302,233.748z"/>
			<path id="XMLID_4653_" d="M500.846,224.67l2.68-4.98c0,0,5.449,2.886,7.319,17.83l-5.32-0.769L500.846,224.67z"/>
			<path id="XMLID_4671_" style="fill:#F68080;" d="M537.353,223.857c-7.775,5.525-15.393,4.279-24.655,7.088
				c-0.09,0.028-0.415,0.199-0.894,0.464c-2.474,1.382-9.085,5.324-9.085,5.324l-3.751-11.665l6.823-3.111l3.665-1.672
				c0,0,1.442-3.446,2.987-5.35c1.545-1.905,3.81-5.137,4.007-8.019c0.2-2.882,3.037-1.559,3.678,0.885
				c0.641,2.442,0.391,5.686,0.391,5.686s3.512,0.965,8.029-2.19c4.515-3.153,4.008-3.894,6.038-4.269
				c2.028-0.375,2.112,1.77,1.507,2.605c0,0,2.541-1.71,3.617-1.551c1.449,0.214,2.209,2.408,0.052,4.513
				c0.096-0.072,1.314-0.943,2.442,0.089c1.177,1.078,0.282,2.373-0.881,3.246c0,0,1.224-0.499,1.852-0.061
				C543.8,216.305,545.128,218.332,537.353,223.857z"/>
			<path id="XMLID_4665_" d="M511.804,231.41c-2.474,1.382-9.085,5.324-9.085,5.324l-3.751-11.665l6.823-3.111
				C507.235,224.715,509.275,228.174,511.804,231.41z"/>
			
				<path id="XMLID_3743_" style="fill:none;stroke:#231F20;stroke-width:0.3491;stroke-linecap:round;stroke-linejoin:round;stroke-miterlimit:10;" d="
				M526.628,216.447c0,0,5.755-0.741,9.464-6.815"/>
			
				<path id="XMLID_4649_" style="fill:none;stroke:#231F20;stroke-width:0.3491;stroke-linecap:round;stroke-linejoin:round;stroke-miterlimit:10;" d="
				M528.748,220.04c0,0,3.52-0.304,11.007-7.441"/>
			
				<path id="XMLID_4651_" style="fill:none;stroke:#231F20;stroke-width:0.3491;stroke-linecap:round;stroke-linejoin:round;stroke-miterlimit:10;" d="
				M531.003,223.026c0,0,5.851-1.856,10.32-7.098"/>
			<path id="XMLID_4556_" style="fill:#F6921E;" d="M568.286,357.756c-3.776,4.227-20.347,7.487-20.347,7.487l0.386-4.086
				c0.211-1.367,0.308-3.739,0.352-5.922c0.055-2.622,0.032-4.969,0.032-4.969l16.34-1.91c0.467,2.076,1.047,3.931,1.586,5.431
				C567.514,356.244,568.286,357.756,568.286,357.756z"/>
			<path id="XMLID_4554_" d="M566.635,353.788c-6.932,1.265-13.859,1.468-17.959,1.447c0.055-2.622,0.032-4.969,0.032-4.969
				l16.34-1.91C565.516,350.433,566.096,352.288,566.635,353.788z"/>
			<path id="XMLID_4679_" style="fill:#462ABC;" d="M570.307,348.542c-11.314,6.655-25.931,5.991-25.931,5.991l-14.93-56.626
				c0,0-46.175,0-58.98,0c-8.987,0-15.059-8.146-17.88-13.001c-1.198-2.063-1.808-3.531-1.808-3.531
				c15.598-3.477,49.345-16.056,49.345-16.056s10.169,0.925,21.305,2.846c10.853,1.878,22.625,4.698,26.798,8.537
				C555.312,283.222,570.307,348.542,570.307,348.542z"/>
			<path id="XMLID_4666_" d="M521.427,268.165c-26.967,14.696-57.193,16.597-68.841,16.74c-1.198-2.063-1.808-3.531-1.808-3.531
				c15.598-3.477,49.345-16.056,49.345-16.056S510.291,266.243,521.427,268.165z"/>
			<path id="XMLID_4529_" d="M568.633,354.532c0.256-0.241,6.275,6.571,13.991,8.676c7.716,2.105,10.25,2.31,10.384,6.373
				c0,0-46.919,0.412-46.919,0s-0.279-4.686,1.652-9.618C547.741,359.962,564.124,358.773,568.633,354.532z"/>
			<path id="XMLID_4514_" style="fill:#F6921E;" d="M592.509,375h-46.226c-0.74,0-1.341-0.6-1.341-1.341v-3.776
				c0-0.741,0.6-1.341,1.341-1.341h46.226c0.74,0,1.341,0.6,1.341,1.341v3.776C593.85,374.4,593.25,375,592.509,375z"/>
			
				<path id="XMLID_4545_" style="fill:none;stroke:#231F20;stroke-width:0.3491;stroke-linecap:round;stroke-linejoin:round;stroke-miterlimit:10;" d="
				M537.842,293.582c-0.248-0.446-2.753,2.741-8.396,4.324c0,0,6.317,2.885,14.684-0.079"/>
			<polygon id="XMLID_4551_" style="fill:#F68080;" points="461.922,185.89 460.667,192.391 459.4,198.957 448.096,191.612 
				450.326,185.738 451.393,182.929 			"/>
			<path id="XMLID_4549_" d="M461.922,185.89l-1.255,6.501c-5.346-0.325-9.034-4.802-10.341-6.653l1.067-2.809L461.922,185.89z"/>
			<path id="XMLID_4290_" style="fill:#F68080;" d="M471.385,177.91c-1.656,7.565-7.973,12.609-14.11,11.266
				c-6.137-1.343-9.769-8.565-8.113-16.13c1.656-7.565,7.973-12.609,14.11-11.266C469.408,163.123,473.04,170.345,471.385,177.91z"
				/>
			<path id="XMLID_4354_" d="M455.791,175.109c0,0,7.093,0.463,10.234-4.214c0,0,6.041,1.143,7.921-1.247
				s-5.58-17.278-21.507-11.579c-0.019-0.724-0.208-1.259-0.605-1.865c-0.174-0.265-0.454-0.536-0.761-0.46
				c-0.297,0.074-0.423,0.425-0.452,0.73c-0.058,0.601,0.078,1.219,0.382,1.741c-0.526-0.331-1.074-0.671-1.691-0.744
				c-0.617-0.074-1.323,0.202-1.54,0.784c-0.216,0.578,0.111,1.223,0.54,1.667c0.442,0.458,1.032,0.811,1.668,0.823
				c-0.072,0.061-0.144,0.122-0.217,0.182c0,0-5.957,4.874-4.587,12.887c1.37,8.013,5.127,9.644,5.127,9.644l3.996-3.063
				c-1.477-0.638-2.997-0.943-2.733-4.461C451.886,171.654,455.03,172.149,455.791,175.109z"/>
			<path id="XMLID_4676_" style="fill:#F6921E;" d="M507.62,264.965c-0.657-0.183-30.355,19.55-59.442,18.042
				c0,0-9.399-18.285-14.377-32.496c-2.661-7.593-5.459-22.357-3.882-35.657c0-0.002,0-0.002,0-0.002
				c0.534-4.507,1.572-8.846,3.288-12.68c2.694-6.023,7.064-10.805,13.788-13.038l0.002,0.002c0.176,0.069,10.382,4.22,16.107,11.18
				c0.634,0.77,1.214,1.577,1.718,2.414c2.449,4.067,8.329,13.859,14.359,23.628c5.901,9.559,11.947,19.094,15.066,23.231
				c0.335,0.444,0.634,0.823,0.897,1.135C500.386,256.948,508.275,265.147,507.62,264.965z"/>
			<path id="XMLID_4659_" style="opacity:0.3;fill:#D35A24;" d="M494.247,249.589c-6.176,3.177-23.994,12.063-29.316,11.684
				c-6.474-0.465-20.502-12.488-29.441-30.831c-3.02-6.194-4.687-11.404-5.57-15.587c0-0.002,0-0.002,0-0.002
				c0.534-4.507,1.572-8.846,3.288-12.68l4.439-0.25l1.047-6.255c0,0,7.739-1.834,15.446,9.61
				c7.709,11.443,14.421,25.316,14.421,25.316l10.62-4.236C485.081,235.917,491.127,245.452,494.247,249.589z"/>
			<path id="XMLID_4661_" style="opacity:0.3;fill:#D35A24;" d="M464.005,209.631l-17.009-20.495
				c0.176,0.069,10.382,4.22,16.107,11.18L464.005,209.631z"/>
			<polygon id="XMLID_4347_" style="fill:#FBC222;" points="446.993,189.133 449.117,187.249 462.658,195.743 462.397,205.437 			
				"/>
			<path id="XMLID_4533_" style="fill:#F6921E;" d="M466.944,233.133c0,0-15.85-37.495-27.14-37.529
				c-11.29-0.034-19.114,20.611,16.257,57.147c0,0,5.781,7.468,12.643,4.757c6.862-2.711,42.141-19.987,42.141-19.987
				s-6.874-9.698-7.319-17.83L466.944,233.133z"/>
			
				<path id="XMLID_4548_" style="fill:none;stroke:#231F20;stroke-width:0.3491;stroke-linecap:round;stroke-linejoin:round;stroke-miterlimit:10;" d="
				M460.905,239.884c0,0,1.734-4.213,6.039-6.751c0,0-6.868,1.749-9.836,7.236"/>
		</g>
		<g id="XMLID_5250_">
			<g id="XMLID_5277_">
				
					<rect id="XMLID_5288_" x="640.668" y="216.879" transform="matrix(0.9983 -0.0586 0.0586 0.9983 -11.6584 37.9844)" width="1.25" height="1.462"/>
				<polygon id="XMLID_5287_" style="fill:#999999;" points="642.603,246.166 642.673,247.364 641.963,249.742 640.832,249.808 
					639.848,247.53 639.778,246.332 				"/>
				<polygon id="XMLID_5286_" style="opacity:0.5;fill:#666666;" points="642.603,246.166 642.673,247.364 641.963,249.742 
					641.821,249.75 641.614,246.224 				"/>
				
					<rect id="XMLID_5285_" x="639.802" y="246.248" transform="matrix(0.9983 -0.0585 0.0585 0.9983 -13.3357 37.9408)" style="opacity:0.5;fill:#666666;" width="2.83" height="0.889"/>
				
					<rect id="XMLID_5284_" x="638.977" y="218.626" transform="matrix(0.9983 -0.0586 0.0586 0.9983 -12.5341 37.9325)" style="fill:#666666;" width="2.83" height="28.032"/>
				
					<rect id="XMLID_5283_" x="640.815" y="218.572" transform="matrix(0.9983 -0.0586 0.0586 0.9983 -12.5293 37.9863)" style="opacity:0.5;fill:#666666;" width="0.99" height="28.032"/>
				
					<rect id="XMLID_5282_" x="638.182" y="218.649" transform="matrix(0.9983 -0.0586 0.0586 0.9983 -11.7409 37.8575)" width="2.83" height="0.92"/>
				<path id="XMLID_5280_" style="fill:#666666;" d="M640.653,212.951l0.232,3.947l-2.825,0.166l-0.232-3.947
					c-0.026-0.446,0.317-0.832,0.763-0.858l1.203-0.071C640.241,212.161,640.627,212.505,640.653,212.951z"/>
				<path id="XMLID_5279_" style="opacity:0.5;fill:#666666;" d="M640.653,212.951l0.232,3.947l-0.989,0.058l-0.279-4.757
					l0.178-0.01C640.241,212.161,640.627,212.505,640.653,212.951z"/>
				<path id="XMLID_5281_" style="fill:#999999;" d="M640.964,218.852l-2.755,0.162c-0.156,0.009-0.29-0.11-0.299-0.266l-0.11-1.872
					c-0.009-0.156,0.11-0.29,0.266-0.299l2.755-0.162c0.156-0.009,0.29,0.11,0.299,0.266l0.11,1.872
					C641.239,218.709,641.12,218.843,640.964,218.852z"/>
				<path id="XMLID_5278_" style="fill:#999999;" d="M642.76,226.507l-0.271,0.016c-0.156,0.009-0.29-0.11-0.299-0.266l-0.564-9.606
					c-0.009-0.156,0.11-0.29,0.266-0.299l0.271-0.016c0.156-0.009,0.29,0.11,0.299,0.266l0.564,9.606
					C643.035,226.364,642.916,226.498,642.76,226.507z"/>
			</g>
			<g id="XMLID_5263_">
				<path id="XMLID_5276_" d="M645.296,217.213l-0.558-0.055l0.192-1.954c0.015-0.154,0.152-0.267,0.307-0.252l0,0
					c0.154,0.015,0.267,0.152,0.252,0.307L645.296,217.213z"/>
				
					<rect id="XMLID_5275_" x="643.291" y="244.811" transform="matrix(0.9952 0.0978 -0.0978 0.9952 27.1044 -61.8134)" width="1.133" height="1.325"/>
				<polygon id="XMLID_5274_" style="fill:#FBC222;" points="646.061,219.666 646.167,218.584 645.609,216.406 644.588,216.306 
					643.615,218.333 643.509,219.415 				"/>
				<polygon id="XMLID_5273_" style="opacity:0.3;fill:#D35A24;" points="646.061,219.666 646.167,218.584 645.609,216.406 
					645.481,216.393 645.168,219.578 				"/>
				
					<rect id="XMLID_5272_" x="644.422" y="217.858" transform="matrix(0.0977 -0.9952 0.9952 0.0977 363.7054 839.457)" width="0.805" height="2.564"/>
				
					<rect id="XMLID_5270_" x="630.878" y="230.55" transform="matrix(0.0978 -0.9952 0.9952 0.0978 349.9025 849.6451)" style="fill:#FBC222;" width="25.399" height="2.564"/>
				
					<rect id="XMLID_5269_" x="631.707" y="231.465" transform="matrix(0.0978 -0.9952 0.9952 0.0978 350.5696 850.5441)" style="opacity:0.3;fill:#D35A24;" width="25.399" height="0.897"/>
				
					<rect id="XMLID_5268_" x="641.959" y="242.774" transform="matrix(0.0978 -0.9952 0.9952 0.0978 336.6696 859.4856)" width="0.833" height="2.564"/>
				<path id="XMLID_5266_" style="fill:#FBC222;" d="M643.112,249.669l0.35-3.565l-2.552-0.251l-0.35,3.565
					c-0.04,0.403,0.257,0.765,0.661,0.804l1.087,0.107C642.711,250.369,643.073,250.073,643.112,249.669z"/>
				<path id="XMLID_5265_" style="opacity:0.3;fill:#D35A24;" d="M643.112,249.669l0.35-3.565l-0.893-0.088l-0.422,4.298
					l0.161,0.016C642.711,250.369,643.073,250.073,643.112,249.669z"/>
				<path id="XMLID_5264_" style="fill:#39B597;" d="M645.503,237.471l-0.245-0.024c-0.141-0.014-0.266,0.089-0.28,0.23
					l-0.853,8.677c-0.014,0.141,0.089,0.266,0.23,0.28l0.245,0.024c0.141,0.014,0.266-0.089,0.28-0.23l0.853-8.677
					C645.747,237.61,645.644,237.485,645.503,237.471z"/>
				<path id="XMLID_5267_" style="fill:#39B597;" d="M643.604,244.338l-2.488-0.245c-0.141-0.014-0.266,0.089-0.28,0.23
					l-0.166,1.691c-0.014,0.141,0.089,0.266,0.23,0.28l2.488,0.245c0.141,0.014,0.266-0.089,0.28-0.23l0.166-1.691
					C643.848,244.477,643.745,244.352,643.604,244.338z"/>
			</g>
			<g id="XMLID_5251_">
				<path id="XMLID_5262_" style="fill:#F6921E;" d="M632.764,222.114l-0.156,1.193l-1.348,0.188l-0.474-1.105l0.298-1.913
					l0.107-0.686c0.016-0.108,0.102-0.191,0.211-0.207l0.008-0.001c0.107-0.012,0.206,0.045,0.251,0.142l0.291,0.631
					L632.764,222.114z"/>
				<path id="XMLID_5260_" style="opacity:0.5;fill:#F6921E;" d="M632.764,222.114l-0.156,1.193l-0.238,0.033l-0.161-1.149
					l-0.799-2.609c0.107-0.012,0.206,0.045,0.251,0.142l0.291,0.631L632.764,222.114z"/>
				<path id="XMLID_5259_" d="M631.952,220.356c-0.128,0.066-0.273,0.113-0.424,0.134c-0.151,0.021-0.304,0.017-0.445-0.012
					l0.107-0.686c0.016-0.108,0.102-0.191,0.211-0.207c0.109-0.015,0.214,0.041,0.26,0.141L631.952,220.356z"/>
				<path id="XMLID_5254_" style="fill:#39B597;" d="M632.764,222.114l3.742,26.781c0.034,0.247-0.14,0.474-0.383,0.508
					l-1.087,0.152c-0.247,0.034-0.474-0.137-0.508-0.383l-3.742-26.781L632.764,222.114z"/>
				
					<rect id="XMLID_5253_" x="634.213" y="246.018" transform="matrix(0.9904 -0.1384 0.1384 0.9904 -28.0443 90.2584)" style="fill:#FBC222;" width="1.998" height="1.671"/>
				<path id="XMLID_5252_" d="M632.764,222.114l3.742,26.781c0.034,0.247-0.14,0.474-0.383,0.508l-0.109,0.015l-3.805-27.226
					L632.764,222.114z"/>
			</g>
			<g id="XMLID_5321_">
				<path id="XMLID_5327_" style="fill:#F6921E;" d="M637.412,222.5l-0.273,1.172l-1.36,0.054l-0.363-1.147l0.486-1.874l0.174-0.673
					c0.027-0.106,0.12-0.18,0.231-0.185l0.009,0c0.107-0.001,0.201,0.066,0.236,0.166l0.227,0.657L637.412,222.5z"/>
				<path id="XMLID_5326_" style="opacity:0.5;fill:#F6921E;" d="M637.412,222.5l-0.273,1.172l-0.24,0.01l-0.046-1.16l-0.537-2.675
					c0.107-0.001,0.201,0.066,0.236,0.166l0.227,0.657L637.412,222.5z"/>
				<path id="XMLID_5325_" d="M636.778,220.67c-0.134,0.053-0.283,0.085-0.435,0.091c-0.153,0.006-0.304-0.013-0.441-0.056
					l0.174-0.673c0.027-0.106,0.12-0.18,0.231-0.185c0.11-0.004,0.209,0.063,0.245,0.166L636.778,220.67z"/>
				<path id="XMLID_5324_" style="fill:#462ABC;" d="M637.412,222.5l1.073,27.02c0.01,0.249-0.186,0.458-0.432,0.467l-1.097,0.044
					c-0.249,0.01-0.458-0.183-0.468-0.432l-1.073-27.02L637.412,222.5z"/>
				
					<rect id="XMLID_5323_" x="636.4" y="246.525" transform="matrix(0.9992 -0.0397 0.0397 0.9992 -9.3252 25.5217)" style="fill:#FBC222;" width="1.998" height="1.671"/>
				<path id="XMLID_5322_" d="M637.412,222.5l1.073,27.02c0.01,0.249-0.186,0.458-0.432,0.467l-0.11,0.004l-1.091-27.469
					L637.412,222.5z"/>
			</g>
			<g id="XMLID_2202_">
				<path id="XMLID_4648_" style="fill:#F6921E;" d="M630.568,225.382v25.012h16.4v-25.012H630.568z M645.941,249.367h-14.345
					V226.41h14.345V249.367z"/>
				<path id="XMLID_4988_" style="fill:#F6921E;" d="M648.253,252.192v-1.175c0-0.52-0.421-0.941-0.941-0.941h-17.089
					c-0.519,0-0.941,0.421-0.941,0.941v1.175H648.253z"/>
				<path id="XMLID_4744_" style="fill:#F6921E;" d="M646.968,225.382h-0.941l-0.368,0.368l-0.368-0.368h-1.305l1.021,1.021
					l-1.646,1.644l-1.646-1.644l1.021-1.021h-1.305l-0.368,0.368l-0.368-0.368h-1.305l1.021,1.021l-1.646,1.644l-1.644-1.644
					l1.019-1.021h-1.303l-0.368,0.368l-0.368-0.368h-1.305l1.019,1.021l-1.644,1.644l-1.646-1.644l1.021-1.021h-1.305l-0.368,0.368
					l-0.368-0.368h-0.941v0.364l0.658,0.658l-0.658,0.658v1.303l1.309-1.309l1.644,1.646l-1.644,1.644l-1.309-1.307v1.301
					l0.658,0.658l-0.658,0.658v1.303l1.309-1.307l1.644,1.644l-1.644,1.646l-1.309-1.309v1.303l0.658,0.658l-0.658,0.658v1.303
					l1.309-1.309l1.644,1.646l-1.644,1.644l-1.309-1.307v1.303l0.658,0.658l-0.658,0.658v1.303l1.309-1.309l1.644,1.646
					l-1.644,1.644l-1.309-1.307v1.301l0.658,0.658l-0.658,0.658v1.303l1.309-1.307l1.644,1.644l-1.644,1.646l-1.309-1.309v1.303
					l0.658,0.658l-0.658,0.658v0.364h0.939l0.37-0.37l0.37,0.37h1.303l-1.021-1.021l1.646-1.646l1.644,1.646l-1.019,1.021h1.303
					l0.37-0.37l0.37,0.37h1.301l-1.019-1.021l1.644-1.646l1.646,1.646l-1.021,1.021h1.303l0.37-0.37l0.37,0.37h1.303l-1.021-1.021
					l1.646-1.646l1.646,1.646l-1.021,1.021h1.303l0.37-0.37l0.37,0.37h0.939v-0.364l-0.658-0.658l0.658-0.658v-1.305l-1.309,1.311
					l-1.646-1.646l1.646-1.644l1.309,1.309v-1.305l-0.658-0.658l0.658-0.658v-1.303l-1.309,1.309l-1.646-1.644l1.646-1.646
					l1.309,1.311v-1.305l-0.658-0.658l0.658-0.658v-1.305l-1.309,1.309l-1.646-1.644l1.646-1.646l1.309,1.311v-1.305l-0.658-0.658
					l0.658-0.658v-1.305l-1.309,1.311l-1.646-1.646l1.646-1.644l1.309,1.309v-1.305l-0.658-0.658l0.658-0.658v-1.303l-1.309,1.309
					l-1.646-1.644l1.646-1.646l1.309,1.311v-1.305l-0.658-0.658l0.658-0.658V225.382z M641.065,227.055l1.646,1.646l-1.646,1.644
					l-1.644-1.644L641.065,227.055z M636.472,234.939l-1.646-1.646l1.646-1.644l1.644,1.644L636.472,234.939z M638.767,233.945
					l1.646,1.646l-1.646,1.646l-1.644-1.646L638.767,233.945z M638.116,237.888l-1.644,1.644l-1.646-1.644l1.646-1.646
					L638.116,237.888z M638.116,242.483l-1.644,1.644l-1.646-1.644l1.646-1.646L638.116,242.483z M637.123,240.186l1.644-1.646
					l1.646,1.646l-1.646,1.644L637.123,240.186z M641.065,240.837l1.646,1.646l-1.646,1.644l-1.644-1.644L641.065,240.837z
					 M639.421,237.888l1.644-1.646l1.646,1.646l-1.646,1.644L639.421,237.888z M639.421,233.294l1.644-1.644l1.646,1.644
					l-1.646,1.646L639.421,233.294z M640.413,230.996l-1.646,1.646l-1.644-1.646l1.644-1.644L640.413,230.996z M636.472,227.055
					l1.644,1.646l-1.644,1.644l-1.646-1.644L636.472,227.055z M632.529,230.996l1.646-1.644l1.644,1.644l-1.644,1.646
					L632.529,230.996z M632.529,235.591l1.646-1.646l1.644,1.646l-1.644,1.646L632.529,235.591z M632.529,240.186l1.646-1.646
					l1.644,1.646l-1.644,1.644L632.529,240.186z M632.529,244.778l1.646-1.644l1.644,1.644l-1.644,1.646L632.529,244.778z
					 M636.472,248.722l-1.646-1.646l1.646-1.644l1.644,1.644L636.472,248.722z M637.123,244.778l1.644-1.644l1.646,1.644
					l-1.646,1.646L637.123,244.778z M641.065,248.722l-1.644-1.646l1.644-1.644l1.646,1.644L641.065,248.722z M645.008,244.778
					l-1.646,1.646l-1.646-1.646l1.646-1.644L645.008,244.778z M645.008,240.186l-1.646,1.644l-1.646-1.644l1.646-1.646
					L645.008,240.186z M645.008,235.591l-1.646,1.646l-1.646-1.646l1.646-1.646L645.008,235.591z M645.008,230.996l-1.646,1.646
					l-1.646-1.646l1.646-1.644L645.008,230.996z"/>
			</g>
		</g>
		<g id="XMLID_2136_">
			<rect id="XMLID_3745_" x="493.711" y="345.346" style="fill:#666666;" width="154.146" height="5.732"/>
			<g id="XMLID_4552_">
				<g id="XMLID_4553_">
					<polygon id="XMLID_4637_" style="fill:#999999;" points="517.459,255.785 515.498,264.467 490.535,375 481.3,375 
						506.263,264.467 508.224,255.785 					"/>
					<polygon id="XMLID_4627_" points="517.459,255.785 515.498,264.467 506.263,264.467 508.224,255.785 					"/>
				</g>
				<g id="XMLID_4555_">
					<polygon id="XMLID_4558_" style="fill:#999999;" points="624.11,255.785 626.071,264.467 651.034,375 660.269,375 
						635.306,264.467 633.345,255.785 					"/>
					<polygon id="XMLID_4557_" points="624.11,255.785 626.071,264.467 635.306,264.467 633.345,255.785 					"/>
				</g>
			</g>
			<path id="XMLID_4623_" style="fill:#666666;" d="M657.415,261.271h-173.26c-1.142,0-2.068-0.926-2.068-2.068v-4.672
				c0-1.142,0.926-2.068,2.068-2.068h173.26c1.142,0,2.068,0.926,2.068,2.068v4.672
				C659.482,260.345,658.557,261.271,657.415,261.271z"/>
		</g>
		<g id="XMLID_4660_">
			<g id="XMLID_4675_">
				<g id="XMLID_4701_">
					<path id="XMLID_4805_" style="fill:#39B597;" d="M685.196,309.999c1.7-0.916,3.775-1.105,5.615-0.513
						c0.598,0.193,1.194,0.481,1.581,0.978c0.62,0.797,0.55,1.971,0.067,2.857c-0.483,0.884-1.304,1.531-2.144,2.087
						c-3.395,2.25-7.375,3.419-11.324,4.412c1.35,0.147,2.678,0.505,3.919,1.062c0.418,0.186,0.844,0.411,1.103,0.788
						c0.658,0.951-0.073,2.263-0.962,3.003c-2.563,2.138-6.176,2.275-9.418,3.066c-1.631,0.399-3.204,0.984-4.778,1.562
						c-1.02,0.377-2.31,1.002-3.302,0.346c-0.043-0.028-0.087-0.059-0.128-0.092c-3.41,8.558-4.124,17.632-4.039,18.681
						c-0.002-0.012-0.006-0.028-0.013-0.047l-0.877,0.294c-0.165-0.486,0.439-10.524,4.281-19.817
						c-0.721-1.74,0.003-4.736-0.36-6.419c-0.054-0.244-0.105-0.49-0.156-0.736c-0.889-4.232-1.595-8.777,0.36-12.592
						c0.594-1.16,1.766-2.325,3.013-1.951c1.454,0.435,1.585,2.422,2.442,3.672c-0.251-1.478-0.058-2.966,0.333-4.423
						c0.25-0.935,0.583-1.856,0.932-2.752c0.729-1.869,1.669-3.853,3.465-4.749c1.024-0.511,2.469-0.493,3.105,0.457
						c0.273,0.407,0.349,0.91,0.403,1.397c0.129,1.175,0.169,2.357,0.118,3.536c1.882-3.63,4.983-6.613,8.682-8.356
						c1.583-0.744,3.583-1.227,4.987-0.182c0.098,0.073,0.189,0.151,0.276,0.236c0.848,0.827,1.134,2.15,0.942,3.335
						c-0.213,1.307-0.914,2.479-1.657,3.574C689.834,305.407,687.656,307.861,685.196,309.999z"/>
					<path id="XMLID_4794_" d="M669.837,312.538c-0.997,3.282-3.028,6.162-5.328,8.709c-0.08,0.089-0.163,0.177-0.247,0.264
						c-0.889-4.232-1.595-8.777,0.36-12.592c0.594-1.16,1.766-2.325,3.013-1.951c1.454,0.435,1.585,2.422,2.442,3.672
						c-0.251-1.478-0.058-2.966,0.333-4.423C670.78,308.309,670.402,310.677,669.837,312.538z"/>
				</g>
				<g id="XMLID_4702_">
					<g id="XMLID_4795_">
						<path id="XMLID_4803_" style="fill:#39B597;" d="M668.374,307.827c-0.434,3.727-3.268,6.637-5.296,9.797
							c-1.018,1.589-1.848,3.286-2.681,4.978c-0.475,0.961-0.965,2.242-1.97,2.701c-0.021,0.009-0.042,0.018-0.063,0.027
							c0.355,3.461,1.254,9.499,3.512,18.944l-0.901,0.215c-2.267-9.49-3.177-15.523-3.536-19.019l-0.007,0
							c-0.067-0.006-0.134-0.014-0.201-0.024c-2.199-0.374-4.141-3.943-5.917-5.151c-4.218-2.873-8.723-6.124-10.169-11.017
							c-0.168-0.572-0.26-1.219-0.222-1.831c0.058-0.889,0.391-1.7,1.166-2.093c1.521-0.773,3.167,0.743,4.837,1.099
							c-2.219-1.656-3.483-4.268-4.532-6.826c-0.855-2.09-1.628-4.432-0.859-6.555c0.438-1.211,1.63-2.316,2.885-2.035
							c0.537,0.12,0.991,0.471,1.41,0.828c1.016,0.855,1.966,1.788,2.837,2.788c-1.279-4.417-1.066-9.251,0.597-13.539
							c0.71-1.828,1.961-3.765,3.903-4.01c0.007,0,0.012-0.002,0.018-0.002c1.476-0.18,2.922,0.734,3.76,1.965
							c0.838,1.229,1.177,2.724,1.419,4.192c0.599,3.614,0.726,7.302,0.379,10.948c0.677-2.062,2.221-3.825,4.178-4.768
							c0.637-0.308,1.349-0.533,2.047-0.428c1.121,0.168,1.975,1.18,2.267,2.274c0.295,1.094,0.126,2.259-0.127,3.365
							c-1.023,4.461-3.359,8.501-5.805,12.371c1.214-0.927,2.573-1.663,4.016-2.172c0.484-0.172,1.005-0.32,1.507-0.214
							C668.102,304.899,668.524,306.532,668.374,307.827z"/>
						<path id="XMLID_4797_" d="M657.468,324.249c-0.079,0.399-0.158,0.797-0.236,1.196c-2.199-0.374-4.141-3.943-5.917-5.151
							c-4.218-2.873-8.723-6.124-10.169-11.017c-0.168-0.572-0.26-1.219-0.222-1.831c1.031,0.809,1.948,2.03,2.727,2.694
							c0.406-1.621,2.337-2.537,3.97-2.184c1.633,0.355,2.911,1.701,3.608,3.218c0.699,1.518,0.91,3.207,1.104,4.867
							c2.431-0.174,4.85,1.631,5.377,4.011C658.015,321.43,657.742,322.864,657.468,324.249z"/>
					</g>
					<path id="XMLID_4800_" style="opacity:0.5;fill:#31A186;" d="M668.374,307.827c-0.434,3.727-3.268,6.637-5.296,9.797
						c-1.018,1.589-1.848,3.286-2.681,4.978c-0.475,0.961-0.965,2.242-1.97,2.701c-0.368-1.017-0.185-2.24,0.022-3.341
						c0.508-2.699,1.003-5.456,0.64-8.18c-0.133-0.994-0.456-2.08-1.328-2.577c-0.435-0.246-0.952-0.311-1.389-0.554
						c-0.927-0.516-1.267-1.739-1.07-2.78c0.194-1.044,0.812-1.951,1.412-2.826c0.741-1.076,1.481-2.15,2.219-3.226
						c0.444-0.644,0.902-1.33,0.963-2.111c0.058-0.781-0.452-1.661-1.232-1.712c-0.954-0.061-1.593,1.042-2.529,1.236
						c-0.859,0.177-1.705-0.507-2.028-1.322c-0.321-0.817-0.252-1.727-0.185-2.603c0.341-4.603,0.386-9.23,0.133-13.841
						c-0.08-1.493-0.58-2.91-0.889-4.363c0.007,0,0.012-0.002,0.018-0.002c1.476-0.18,2.922,0.734,3.76,1.965
						c0.838,1.229,1.177,2.724,1.419,4.192c0.599,3.614,0.726,7.302,0.379,10.948c0.677-2.062,2.221-3.825,4.178-4.768
						c0.637-0.308,1.349-0.533,2.047-0.428c1.121,0.168,1.975,1.18,2.267,2.274c0.295,1.094,0.126,2.259-0.127,3.365
						c-1.023,4.461-3.359,8.501-5.805,12.371c1.214-0.927,2.573-1.663,4.016-2.172c0.484-0.172,1.005-0.32,1.507-0.214
						C668.102,304.899,668.524,306.532,668.374,307.827z"/>
				</g>
				<path id="XMLID_4804_" style="fill:#39B597;" d="M659.68,349.31l-0.922-0.06c0.004-0.083,0.403-7.701-5.829-15.02
					c-0.76,0.354-1.686-0.111-2.428-0.399c-1.222-0.477-2.444-0.959-3.712-1.294c-2.523-0.669-5.344-0.83-7.318-2.54
					c-0.683-0.592-1.234-1.629-0.705-2.362c0.209-0.29,0.545-0.46,0.873-0.6c0.979-0.415,2.022-0.676,3.08-0.771
					c-3.072-0.836-6.168-1.809-8.786-3.62c-0.649-0.446-1.283-0.964-1.645-1.664c-0.365-0.7-0.401-1.619,0.095-2.232
					c0.31-0.383,0.778-0.599,1.25-0.741c1.446-0.435,3.066-0.255,4.381,0.485c-1.889-1.708-3.557-3.659-4.945-5.793
					c-0.563-0.868-1.092-1.793-1.24-2.818c-0.146-1.025,0.164-2.173,1.007-2.773c0.026-0.018,0.052-0.036,0.077-0.052
					c1.107-0.725,2.619-0.323,3.818,0.269c2.866,1.418,5.245,3.798,6.662,6.663c-0.023-0.921,0.026-1.847,0.144-2.761
					c0.051-0.381,0.118-0.773,0.336-1.088c0.513-0.733,1.643-0.725,2.436-0.311c1.391,0.728,2.094,2.292,2.636,3.765
					c0.664,1.804,1.24,3.738,0.881,5.628c0.69-0.966,0.822-2.515,1.965-2.835c0.981-0.274,1.88,0.655,2.326,1.57
					c1.555,3.189,0.773,6.972-0.042,10.427c-0.267,1.133,0.085,3.049-0.201,4.42c-0.061,0.29-0.149,0.555-0.277,0.781
					C660.122,341.182,659.704,348.957,659.68,349.31z"/>
				<path id="XMLID_4801_" style="opacity:0.5;fill:#31A186;" d="M685.196,309.999c1.7-0.916,3.775-1.105,5.615-0.513
					c0.598,0.193,1.194,0.481,1.581,0.978c0.62,0.797,0.55,1.971,0.067,2.857c-0.483,0.884-1.304,1.531-2.144,2.087
					c-3.395,2.25-7.375,3.419-11.324,4.412c1.35,0.147,2.678,0.505,3.919,1.062c0.418,0.186,0.844,0.411,1.103,0.788
					c0.658,0.951-0.073,2.263-0.962,3.003c-2.563,2.138-6.176,2.275-9.418,3.066c-1.631,0.399-3.204,0.984-4.778,1.562
					c-1.02,0.377-2.31,1.002-3.302,0.346c0.198-1.282,1.492-2.339,2.69-3.046c1.636-0.965,3.335-1.821,5.084-2.558
					c0.606-0.255,1.239-0.51,1.683-0.995c0.446-0.482,0.638-1.272,0.247-1.799c-0.592-0.804-2.053-0.534-2.575-1.382
					c-0.488-0.79,0.272-1.76,1.022-2.306c1.542-1.127,3.327-1.916,5.198-2.299c1.007-0.209,2.094-0.324,2.892-0.971
					c0.798-0.65,1.041-2.088,0.167-2.631c-0.931-0.583-2.285,0.281-3.207-0.318c0.682-1.815,2.421-2.968,3.975-4.129
					c2.92-2.184,5.513-4.809,7.658-7.757c0.804-1.105,1.586-2.335,1.989-3.651c0.848,0.827,1.134,2.15,0.942,3.335
					c-0.213,1.307-0.914,2.479-1.657,3.574C689.834,305.407,687.656,307.861,685.196,309.999z"/>
				<path id="XMLID_4799_" style="opacity:0.5;fill:#31A186;" d="M654.076,328.383c-0.267,1.133,0.085,3.049-0.201,4.42
					c-0.523-0.22-0.957-0.683-1.214-1.203c-0.357-0.721-0.437-1.543-0.513-2.345c-0.198-2.117-0.399-4.234-0.597-6.352
					c-0.053-0.551-0.202-1.227-0.739-1.368c-0.449-0.119-0.888,0.239-1.137,0.627c-0.25,0.391-0.415,0.853-0.772,1.15
					c-0.808,0.677-2.143,0.066-2.574-0.895c-0.429-0.96-0.232-2.072-0.023-3.104c0.208-1.032,0.415-2.139,0-3.106
					c-0.078-0.179-0.186-0.362-0.36-0.45c-0.385-0.196-0.838,0.165-1.009,0.563c-0.173,0.395-0.207,0.857-0.458,1.206
					c-0.344,0.475-1.021,0.613-1.588,0.465c-0.566-0.147-1.043-0.525-1.473-0.923c-1.924-1.796-3.205-4.162-4.775-6.276
					c-0.856-1.153-1.794-2.499-3.017-3.293c-0.226-0.145-0.471-0.291-0.711-0.443c1.107-0.725,2.619-0.323,3.818,0.269
					c2.866,1.418,5.245,3.798,6.662,6.663c-0.023-0.921,0.026-1.847,0.144-2.761c0.051-0.381,0.118-0.773,0.336-1.088
					c0.513-0.733,1.643-0.725,2.436-0.311c1.391,0.728,2.094,2.292,2.636,3.765c0.664,1.804,1.24,3.738,0.881,5.628
					c0.69-0.966,0.822-2.515,1.965-2.835c0.981-0.274,1.88,0.655,2.326,1.57C655.673,321.146,654.891,324.929,654.076,328.383z"/>
			</g>
			<polygon id="XMLID_4807_" style="fill:#462ABC;" points="677.778,337.924 675.884,348.044 674.74,354.169 670.841,375 
				645.347,375 641.559,354.754 640.299,348.019 638.41,337.924 			"/>
			<path id="XMLID_4919_" style="fill:#FBC222;" d="M675.884,348.044l-1.145,6.125c-0.053-0.037-0.111-0.074-0.169-0.106
				c-1.311-0.751-3.022-0.056-4.09,1.013c-0.576,0.578-1.045,1.255-1.655,1.799c-0.61,0.541-1.417,0.946-2.222,0.807
				c-1.7-0.291-2.141-2.539-3.422-3.693c-1.091-0.98-2.777-1.068-4.144-0.539c-1.366,0.53-2.467,1.577-3.422,2.689
				c-0.687,0.802-1.401,1.699-2.43,1.935c-1.392,0.319-2.719-0.714-3.651-1.797c-0.929-1.084-1.808-2.358-3.168-2.791
				c-1.635-0.523-3.355,0.351-4.807,1.267l-1.26-6.736c0.416-0.24,0.823-0.5,1.221-0.749c1.461-0.925,3.198-1.817,4.846-1.292
				c1.36,0.435,2.238,1.709,3.168,2.791c0.932,1.084,2.259,2.116,3.651,1.797c1.029-0.234,1.743-1.133,2.43-1.933
				c0.955-1.112,2.056-2.162,3.422-2.691c1.367-0.529,3.052-0.439,4.144,0.541c1.281,1.151,1.722,3.401,3.422,3.693
				c0.805,0.136,1.612-0.268,2.222-0.809c0.61-0.541,1.08-1.221,1.655-1.797c1.068-1.07,2.779-1.767,4.09-1.015
				C675.16,346.891,675.547,347.443,675.884,348.044z"/>
		</g>
	</g>
	<g id="XMLID_1055_">
		<rect id="XMLID_187_" x="50" y="359.674" width="298.068" height="2.057"/>
		<g id="XMLID_689_">
			<g id="XMLID_720_">
				<g id="XMLID_725_">
					<path id="XMLID_808_" style="fill:#D35A24;" d="M70.112,129.039v9.064h-8.081v-9.064c0-2.231,1.807-4.039,4.039-4.039h0.003
						C68.305,125.001,70.112,126.808,70.112,129.039z"/>
					<path id="XMLID_727_" style="fill:#F6921E;" d="M68.087,129.536c0,1.113-0.902,2.016-2.016,2.016
						c-1.113,0-2.016-0.902-2.016-2.016c0-1.113,0.902-2.016,2.016-2.016C67.185,127.52,68.087,128.423,68.087,129.536z"/>
					<rect id="XMLID_726_" x="62.031" y="132.908" width="8.081" height="5.196"/>
				</g>
				<g id="XMLID_721_">
					<path id="XMLID_724_" style="fill:#D35A24;" d="M117.844,129.039v9.064h-8.081v-9.064c0-2.231,1.808-4.039,4.039-4.039h0.004
						C116.036,125.001,117.844,126.808,117.844,129.039z"/>
					<path id="XMLID_723_" style="fill:#F6921E;" d="M115.819,129.536c0,1.113-0.902,2.016-2.015,2.016
						c-1.113,0-2.016-0.902-2.016-2.016c0-1.113,0.902-2.016,2.016-2.016C114.916,127.52,115.819,128.423,115.819,129.536z"/>
					<rect id="XMLID_722_" x="109.763" y="132.908" width="8.081" height="5.196"/>
				</g>
			</g>
			<rect id="XMLID_719_" x="50" y="134.429" style="fill:#F6921E;" width="79.875" height="115.322"/>
			<rect id="XMLID_718_" x="53.127" y="137.558" style="fill:#D35A24;" width="73.621" height="109.066"/>
			<polygon id="XMLID_717_" points="126.748,137.558 126.748,142.97 53.127,140.304 53.127,137.558 			"/>
			<g id="XMLID_712_">
				<rect id="XMLID_716_" x="55.188" y="145.768" style="fill:#FBC222;" width="11.508" height="44.488"/>
				<rect id="XMLID_715_" x="55.188" y="158.714" style="fill:#271977;" width="11.508" height="18.595"/>
				<rect id="XMLID_713_" x="57.77" y="148.287" style="fill:#271977;" width="6.343" height="2.346"/>
			</g>
			<g id="XMLID_708_">
				
					<rect id="XMLID_711_" x="105.972" y="208.305" transform="matrix(0.9583 -0.2857 0.2857 0.9583 -60.3582 41.1688)" style="fill:#39B597;" width="9.912" height="38.319"/>
				
					<rect id="XMLID_710_" x="105.972" y="219.456" transform="matrix(0.9583 -0.2857 0.2857 0.9583 -60.3583 41.1688)" style="fill:#FFFFFF;" width="9.912" height="16.016"/>
				
					<rect id="XMLID_709_" x="103.632" y="211.141" transform="matrix(0.9583 -0.2857 0.2857 0.9583 -56.1744 39.2271)" style="fill:#FFFFFF;" width="5.464" height="2.021"/>
			</g>
			<g id="XMLID_705_">
				<rect id="XMLID_707_" x="66.697" y="148.287" style="fill:#462ABC;" width="9.78" height="41.968"/>
				<rect id="XMLID_706_" x="68.882" y="159.279" style="fill:#FBC222;" width="5.408" height="19.985"/>
			</g>
			<g id="XMLID_702_">
				<rect id="XMLID_704_" x="77.455" y="144.29" style="fill:#FFFFFF;" width="9.78" height="45.965"/>
				<rect id="XMLID_703_" x="79.641" y="156.329" style="fill:#EC1C24;" width="5.408" height="21.888"/>
			</g>
			<g id="XMLID_696_">
				<rect id="XMLID_701_" x="68.092" y="210.703" style="fill:#462ABC;" width="31.646" height="35.921"/>
				<polygon id="XMLID_700_" points="99.738,229.594 99.738,237.055 68.092,235.689 68.092,229.594 				"/>
				<polygon id="XMLID_699_" points="99.738,210.703 99.738,218.22 68.092,216.165 68.092,210.703 				"/>
				<rect id="XMLID_698_" x="68.092" y="223.246" style="fill:#FBC222;" width="31.646" height="11.89"/>
				<rect id="XMLID_697_" x="66.972" y="208.333" style="fill:#462ABC;" width="33.886" height="6.785"/>
			</g>
			<polygon id="XMLID_695_" points="126.748,192.091 126.748,197.502 53.127,194.837 53.127,192.091 			"/>
			
				<rect id="XMLID_694_" x="87.953" y="155.281" transform="matrix(-1.836970e-16 1 -1 -1.836970e-16 282.0275 102.1525)" style="fill:#F6921E;" width="3.969" height="73.619"/>
		</g>
		<g id="XMLID_840_">
			<polygon id="XMLID_927_" points="96.584,337.833 174.213,337.833 162.363,283.903 84.734,283.903 			"/>
			<polygon id="XMLID_926_" style="fill:#462ABC;" points="172.66,335.521 161.825,286.215 88.931,286.215 99.765,335.521 			"/>
			<g id="XMLID_846_">
				<path id="XMLID_904_" d="M138.525,300.439c-0.139-0.586-0.232-1.189-0.362-1.777c-0.748-3.401-3.289-8.206-7.088-8.757
					c-0.607-0.088-1.224-0.072-1.838-0.056c-3.673,0.095-7.303,3.007-8.173,6.667c-0.575,2.418-0.028,5.071-1.016,7.351
					c-0.394,0.909-1.012,1.704-1.434,2.6c-0.826,1.753-0.734,4.095,0.734,5.359c0.965,0.831,2.305,1.048,3.428,1.648
					c0.957,0.512,1.739,1.293,2.637,1.902c0.898,0.609,2.013,1.054,3.058,0.762c1.448-0.405,2.19-2.018,3.466-2.815
					c2.681-1.674,6.118,0.702,8.814-0.875c1.927-1.127,3.173-4.237,2.095-6.264c-0.883-1.66-2.826-2.538-3.747-4.177
					C138.824,301.518,138.655,300.986,138.525,300.439z"/>
				<path id="XMLID_903_" style="fill:#F68080;" d="M147.468,335.641l-2.857-10.873l-1.005-3.832l7.17-1.322
					c0,0,0.339,0.855,0.876,2.322c1.046,2.857,2.843,8.031,4.341,13.706H147.468z"/>
				<path id="XMLID_902_" d="M143.606,320.936l1.005,3.832c2.113-0.462,5.09-1.849,7.041-2.833
					c-0.538-1.467-0.876-2.322-0.876-2.322L143.606,320.936z"/>
				<path id="XMLID_868_" style="fill:#F68080;" d="M119.371,325.539c-0.294,1.862-0.22,6.134-0.062,10.102h-6.904
					c-0.135-4.099-0.217-8.465,0.126-10.897c0.326-2.324,0.572-3.908,0.572-3.908l7.939-0.976c0,0-0.665,1.112-1.248,3.537
					C119.642,324.02,119.499,324.733,119.371,325.539z"/>
				<path id="XMLID_865_" d="M112.531,324.744c3.417,0.434,5.891-0.551,7.263-1.348c0.583-2.425,1.248-3.537,1.248-3.537
					l-7.939,0.976C113.103,320.836,112.857,322.42,112.531,324.744z"/>
				<path id="XMLID_861_" style="fill:#F6921E;" d="M110.928,322.42c0,0,2.834,0.781,5.598,0.762
					c1.334-0.008,2.65-0.203,3.623-0.762c2.983-1.72,5.411-15.034,5.411-15.034s-0.575,0.136-1.5,0.472
					c-0.003,0-0.008,0.003-0.011,0.003C120.725,309.073,112.908,312.884,110.928,322.42z"/>
				<path id="XMLID_860_" style="opacity:0.3;fill:#D35A24;" d="M116.526,323.182c1.334-0.008,2.65-0.203,3.623-0.762
					c2.983-1.72,5.411-15.034,5.411-15.034s-0.575,0.136-1.5,0.472c-0.003,0-0.008,0.003-0.011,0.003
					c-1.63,0.879-3.813,2.677-5.422,6.33C117.269,317.277,116.721,320.562,116.526,323.182z"/>
				<path id="XMLID_859_" style="fill:#F6921E;" d="M152.99,320.842c0,0-2.693,1.179-5.431,1.555
					c-1.322,0.183-2.652,0.178-3.695-0.236c-3.199-1.275-7.506-14.105-7.506-14.105s0.588,0.052,1.552,0.252
					c0.003,0,0.008,0.002,0.011,0.001C141.385,309.034,149.666,311.687,152.99,320.842z"/>
				<path id="XMLID_857_" style="opacity:0.3;fill:#D35A24;" d="M147.559,322.397c-1.322,0.183-2.652,0.178-3.695-0.236
					c-3.199-1.275-7.506-14.105-7.506-14.105s0.588,0.052,1.552,0.252c0.003,0,0.008,0.002,0.011,0.001
					c1.739,0.637,4.157,2.104,6.272,5.489C145.979,316.66,146.991,319.832,147.559,322.397z"/>
				<path id="XMLID_912_" style="fill:#F6921E;" d="M148.654,335.641h-28.568c-0.888-7.617-1.788-18.176-0.457-21.673
					c1.206-3.166,3.312-5.014,4.941-6.028c1.305-0.815,2.312-1.1,2.312-1.1l5.981,0.159c0,0,1.53,0.185,3.524,1.146
					c2.259,1.08,5.1,3.146,6.975,7.041C145.441,319.506,147.402,328.772,148.654,335.641z"/>
				<path id="XMLID_910_" style="fill:#FFFFFF;" d="M131.425,319.857c0,0-4.127-4.61-6.286-9.333
					c-0.444-0.967-0.603-1.828-0.57-2.583c1.305-0.815,2.312-1.1,2.312-1.1l5.981,0.159c0,0,1.53,0.185,3.524,1.146
					c0.079,0.225,0.146,0.451,0.199,0.682C137.387,312.266,131.425,319.857,131.425,319.857z"/>
				<path id="XMLID_855_" style="fill:#F68080;" d="M134.338,301.006c0.386,0.035,0.78-0.16,1.117-0.465
					c0.73-0.655,1.19-1.821,0.698-2.258c-0.308-0.273-0.646-0.237-0.932-0.104c-0.383,0.173-0.673,0.519-0.673,0.519
					L134.338,301.006z"/>
				<path id="XMLID_854_" d="M134.338,301.006c0.386,0.035,0.78-0.16,1.117-0.465c0.021-0.849-0.129-1.81-0.234-2.362
					c-0.383,0.173-0.673,0.519-0.673,0.519L134.338,301.006z"/>
				<path id="XMLID_853_" style="fill:#F68080;" d="M124.805,301.339c-0.382,0.063-0.789-0.105-1.147-0.385
					c-0.774-0.603-1.314-1.733-0.854-2.204c0.288-0.294,0.628-0.282,0.923-0.169c0.394,0.146,0.708,0.47,0.708,0.47L124.805,301.339
					z"/>
				<path id="XMLID_852_" d="M124.805,301.339c-0.382,0.063-0.789-0.105-1.147-0.385c-0.081-0.846,0.002-1.814,0.068-2.373
					c0.394,0.146,0.708,0.47,0.708,0.47L124.805,301.339z"/>
				<path id="XMLID_851_" style="fill:#F68080;" d="M133.533,307.044c0.22-0.117,1.615,0.564,1.924,2.084
					c0.309,1.52-4.061,9.169-4.061,9.169s-5.226-6.556-5.368-9.216s3.623-2.165,3.623-2.165L133.533,307.044z"/>
				<path id="XMLID_850_" style="fill:#F68080;" d="M127.009,308.653c3.343,2.461,7.047-0.247,7.047-0.247l-0.697-3.395
					l-0.354-1.724l-5.578,0.195l-0.278,3.448L127.009,308.653z"/>
				<path id="XMLID_849_" d="M127.15,306.93c2.789,0.521,4.983-0.853,6.21-1.919l-0.354-1.724l-5.578,0.195L127.15,306.93z"/>
				<path id="XMLID_848_" style="fill:#F68080;" d="M124.116,299.74c0.371,3.423,3.082,5.937,6.056,5.616
					c2.974-0.322,5.085-3.358,4.715-6.781c-0.37-3.423-3.082-5.937-6.056-5.615C125.856,293.281,123.745,296.317,124.116,299.74z"/>
				<path id="XMLID_847_" d="M128.027,295.159c-0.833,1.012-2.123,1.711-3.402,1.969c-1.093,0.22-1.93-0.621-1.459-1.729
					c0.432-1.017,1.325-1.751,2.186-2.443c0.819-0.658,1.665-1.331,2.671-1.632c2.048-0.612,4.264,0.482,5.747,2.021
					c0.818,0.849,1.497,1.852,1.851,2.976c0.216,0.687,0.456,1.703,0.146,2.417c-0.477,1.098-1.4,0.451-2.244,0.209
					C131.317,298.314,129.355,297.06,128.027,295.159z"/>
			</g>
			<polygon id="XMLID_845_" points="96.971,339.015 199.362,339.015 198.32,335.301 95.929,335.301 			"/>
			<circle id="XMLID_844_" style="fill:#333333;" cx="126.615" cy="284.939" r="0.579"/>
			
				<rect id="XMLID_843_" x="112.038" y="336.518" transform="matrix(-1 -1.224647e-16 1.224647e-16 -1 229.7788 674.3187)" style="fill:#333333;" width="5.703" height="1.282"/>
			
				<rect id="XMLID_841_" x="108.338" y="336.518" transform="matrix(-1 -1.224647e-16 1.224647e-16 -1 218.8343 674.3187)" style="fill:#333333;" width="2.158" height="1.282"/>
		</g>
		<g id="XMLID_714_">
			<g id="XMLID_906_">
				<g id="XMLID_917_">
					<path id="XMLID_919_" style="fill:#39B597;" d="M220.817,147.958c1.185-0.639,2.633-0.771,3.915-0.358
						c0.417,0.135,0.833,0.336,1.102,0.682c0.432,0.556,0.383,1.374,0.047,1.992c-0.337,0.617-0.909,1.068-1.495,1.456
						c-2.368,1.569-5.143,2.384-7.897,3.077c0.942,0.102,1.868,0.352,2.733,0.74c0.291,0.129,0.588,0.286,0.769,0.549
						c0.459,0.663-0.051,1.578-0.671,2.094c-1.788,1.491-4.307,1.586-6.568,2.138c-1.137,0.278-2.234,0.686-3.332,1.089
						c-0.711,0.263-1.611,0.699-2.302,0.241c-0.03-0.02-0.061-0.041-0.089-0.064c-2.378,5.968-2.876,12.296-2.817,13.027
						c-0.001-0.008-0.004-0.02-0.009-0.032l-0.612,0.205c-0.115-0.339,0.306-7.339,2.985-13.819
						c-0.503-1.214,0.002-3.303-0.251-4.477c-0.037-0.17-0.073-0.342-0.109-0.513c-0.62-2.951-1.112-6.121,0.251-8.782
						c0.414-0.809,1.232-1.621,2.101-1.361c1.014,0.303,1.105,1.689,1.703,2.561c-0.175-1.03-0.041-2.068,0.232-3.084
						c0.174-0.652,0.407-1.294,0.65-1.919c0.509-1.304,1.164-2.687,2.417-3.312c0.714-0.357,1.722-0.344,2.165,0.319
						c0.19,0.284,0.244,0.635,0.281,0.974c0.09,0.819,0.117,1.644,0.082,2.466c1.313-2.531,3.475-4.612,6.054-5.827
						c1.104-0.519,2.499-0.856,3.478-0.127c0.068,0.051,0.132,0.105,0.192,0.165c0.591,0.577,0.791,1.499,0.657,2.326
						c-0.149,0.912-0.637,1.729-1.155,2.492C224.05,144.756,222.531,146.468,220.817,147.958z"/>
					<path id="XMLID_918_" d="M210.106,149.729c-0.695,2.289-2.112,4.297-3.715,6.074c-0.056,0.062-0.114,0.124-0.173,0.184
						c-0.62-2.951-1.112-6.121,0.251-8.782c0.414-0.809,1.232-1.621,2.101-1.361c1.014,0.303,1.105,1.689,1.703,2.561
						c-0.175-1.03-0.041-2.068,0.232-3.084C210.763,146.78,210.5,148.431,210.106,149.729z"/>
				</g>
				<g id="XMLID_911_">
					<g id="XMLID_914_">
						<path id="XMLID_916_" style="fill:#39B597;" d="M209.085,146.443c-0.303,2.599-2.279,4.628-3.693,6.832
							c-0.71,1.108-1.289,2.291-1.869,3.471c-0.331,0.67-0.673,1.564-1.374,1.883c-0.015,0.006-0.029,0.012-0.044,0.019
							c0.247,2.414,0.874,6.624,2.449,13.211l-0.628,0.15c-1.581-6.618-2.215-10.825-2.466-13.263l-0.005,0
							c-0.047-0.004-0.093-0.01-0.14-0.017c-1.534-0.261-2.888-2.749-4.126-3.592c-2.941-2.004-6.083-4.27-7.092-7.683
							c-0.117-0.399-0.182-0.85-0.155-1.277c0.04-0.62,0.273-1.185,0.813-1.46c1.061-0.539,2.208,0.518,3.373,0.766
							c-1.547-1.155-2.429-2.977-3.16-4.76c-0.597-1.457-1.135-3.091-0.599-4.571c0.305-0.844,1.137-1.615,2.012-1.419
							c0.374,0.084,0.691,0.328,0.983,0.577c0.709,0.596,1.371,1.247,1.978,1.945c-0.892-3.08-0.743-6.451,0.416-9.441
							c0.495-1.275,1.367-2.626,2.722-2.797c0.005,0,0.008-0.002,0.013-0.001c1.03-0.125,2.038,0.512,2.622,1.371
							c0.585,0.857,0.821,1.9,0.99,2.924c0.418,2.52,0.506,5.092,0.264,7.634c0.472-1.438,1.549-2.667,2.913-3.325
							c0.444-0.215,0.94-0.372,1.428-0.299c0.782,0.117,1.377,0.823,1.581,1.586c0.206,0.763,0.088,1.576-0.089,2.346
							c-0.713,3.111-2.342,5.929-4.048,8.627c0.847-0.646,1.794-1.16,2.801-1.515c0.338-0.12,0.701-0.223,1.051-0.149
							C208.896,144.402,209.19,145.541,209.085,146.443z"/>
						<path id="XMLID_915_" d="M201.48,157.896c-0.055,0.278-0.11,0.556-0.165,0.834c-1.534-0.261-2.888-2.749-4.126-3.592
							c-2.941-2.004-6.083-4.27-7.092-7.683c-0.117-0.399-0.182-0.85-0.155-1.277c0.719,0.564,1.359,1.416,1.902,1.879
							c0.283-1.13,1.63-1.769,2.769-1.523c1.139,0.248,2.03,1.186,2.516,2.244c0.488,1.059,0.634,2.237,0.77,3.394
							c1.695-0.122,3.382,1.137,3.75,2.797C201.861,155.93,201.671,156.93,201.48,157.896z"/>
					</g>
					<path id="XMLID_913_" style="opacity:0.5;fill:#31A186;" d="M209.085,146.443c-0.303,2.599-2.279,4.628-3.693,6.832
						c-0.71,1.108-1.289,2.291-1.869,3.471c-0.331,0.67-0.673,1.564-1.374,1.883c-0.257-0.709-0.129-1.562,0.016-2.33
						c0.354-1.882,0.7-3.805,0.446-5.704c-0.092-0.693-0.318-1.451-0.926-1.797c-0.303-0.172-0.664-0.217-0.969-0.387
						c-0.647-0.36-0.883-1.212-0.746-1.939c0.135-0.728,0.566-1.361,0.985-1.971c0.517-0.75,1.033-1.499,1.548-2.25
						c0.309-0.449,0.629-0.927,0.671-1.472c0.04-0.544-0.315-1.159-0.859-1.194c-0.665-0.042-1.111,0.727-1.764,0.862
						c-0.599,0.123-1.189-0.353-1.414-0.922c-0.224-0.57-0.175-1.205-0.129-1.815c0.238-3.21,0.269-6.436,0.092-9.652
						c-0.056-1.041-0.404-2.03-0.62-3.043c0.005,0,0.008-0.002,0.013-0.001c1.03-0.125,2.038,0.512,2.622,1.371
						c0.585,0.857,0.821,1.9,0.99,2.924c0.418,2.52,0.506,5.092,0.264,7.634c0.472-1.438,1.549-2.667,2.913-3.325
						c0.444-0.215,0.94-0.372,1.428-0.299c0.782,0.117,1.377,0.823,1.581,1.586c0.206,0.763,0.088,1.576-0.089,2.346
						c-0.713,3.111-2.342,5.929-4.048,8.627c0.847-0.646,1.794-1.16,2.801-1.515c0.338-0.12,0.701-0.223,1.051-0.149
						C208.896,144.402,209.19,145.541,209.085,146.443z"/>
				</g>
				<path id="XMLID_909_" style="fill:#39B597;" d="M203.022,175.372l-0.643-0.042c0.003-0.058,0.281-5.37-4.065-10.474
					c-0.53,0.247-1.176-0.077-1.693-0.278c-0.852-0.333-1.704-0.669-2.588-0.902c-1.759-0.467-3.726-0.579-5.103-1.771
					c-0.476-0.413-0.86-1.136-0.492-1.647c0.145-0.202,0.38-0.321,0.609-0.418c0.682-0.289,1.41-0.472,2.148-0.538
					c-2.143-0.583-4.301-1.262-6.127-2.525c-0.452-0.311-0.894-0.672-1.147-1.161c-0.254-0.488-0.28-1.129,0.066-1.557
					c0.216-0.267,0.543-0.418,0.872-0.517c1.008-0.303,2.138-0.178,3.055,0.338c-1.317-1.191-2.48-2.552-3.449-4.04
					c-0.392-0.605-0.762-1.25-0.865-1.965c-0.102-0.714,0.114-1.515,0.702-1.934c0.018-0.012,0.036-0.025,0.054-0.036
					c0.772-0.506,1.826-0.226,2.662,0.188c1.998,0.989,3.657,2.648,4.646,4.646c-0.016-0.642,0.018-1.288,0.1-1.925
					c0.035-0.265,0.082-0.539,0.234-0.759c0.357-0.511,1.146-0.505,1.699-0.217c0.97,0.507,1.46,1.598,1.839,2.626
					c0.463,1.258,0.865,2.607,0.614,3.925c0.481-0.674,0.573-1.754,1.37-1.977c0.684-0.191,1.311,0.457,1.622,1.095
					c1.085,2.224,0.539,4.862-0.029,7.271c-0.187,0.79,0.059,2.127-0.14,3.083c-0.042,0.202-0.104,0.387-0.194,0.545
					C203.331,169.704,203.04,175.126,203.022,175.372z"/>
				<path id="XMLID_908_" style="opacity:0.5;fill:#31A186;" d="M220.817,147.958c1.185-0.639,2.633-0.771,3.915-0.358
					c0.417,0.135,0.833,0.336,1.102,0.682c0.432,0.556,0.383,1.374,0.047,1.992c-0.337,0.617-0.909,1.068-1.495,1.456
					c-2.368,1.569-5.143,2.384-7.897,3.077c0.942,0.102,1.868,0.352,2.733,0.74c0.291,0.129,0.588,0.286,0.769,0.549
					c0.459,0.663-0.051,1.578-0.671,2.094c-1.788,1.491-4.307,1.586-6.568,2.138c-1.137,0.278-2.234,0.686-3.332,1.089
					c-0.711,0.263-1.611,0.699-2.302,0.241c0.139-0.894,1.04-1.631,1.876-2.124c1.141-0.673,2.326-1.27,3.546-1.783
					c0.422-0.178,0.864-0.356,1.173-0.694c0.311-0.336,0.445-0.887,0.172-1.255c-0.413-0.561-1.432-0.372-1.796-0.964
					c-0.34-0.551,0.19-1.227,0.712-1.608c1.075-0.786,2.32-1.336,3.625-1.603c0.702-0.146,1.46-0.226,2.017-0.677
					c0.556-0.453,0.726-1.456,0.116-1.835c-0.649-0.407-1.594,0.196-2.236-0.222c0.476-1.266,1.688-2.07,2.772-2.879
					c2.036-1.523,3.844-3.354,5.34-5.409c0.56-0.771,1.106-1.628,1.387-2.546c0.591,0.577,0.791,1.499,0.657,2.326
					c-0.149,0.912-0.637,1.729-1.155,2.492C224.05,144.756,222.531,146.468,220.817,147.958z"/>
				<path id="XMLID_907_" style="opacity:0.5;fill:#31A186;" d="M199.114,160.779c-0.187,0.79,0.059,2.127-0.14,3.083
					c-0.365-0.153-0.667-0.476-0.846-0.839c-0.249-0.503-0.305-1.076-0.358-1.635c-0.138-1.477-0.278-2.953-0.416-4.429
					c-0.037-0.384-0.141-0.856-0.515-0.954c-0.313-0.083-0.619,0.166-0.793,0.438c-0.174,0.273-0.29,0.595-0.538,0.802
					c-0.563,0.472-1.494,0.046-1.795-0.624c-0.299-0.67-0.161-1.445-0.016-2.164c0.145-0.72,0.289-1.491,0-2.166
					c-0.054-0.125-0.129-0.252-0.251-0.314c-0.269-0.137-0.584,0.115-0.704,0.392c-0.121,0.275-0.145,0.597-0.32,0.841
					c-0.24,0.331-0.712,0.428-1.107,0.324c-0.395-0.102-0.727-0.366-1.027-0.644c-1.342-1.253-2.235-2.902-3.33-4.376
					c-0.597-0.804-1.251-1.743-2.104-2.297c-0.158-0.101-0.329-0.203-0.496-0.309c0.772-0.506,1.826-0.226,2.662,0.188
					c1.998,0.989,3.657,2.648,4.646,4.646c-0.016-0.642,0.018-1.288,0.1-1.925c0.035-0.265,0.082-0.539,0.234-0.759
					c0.357-0.511,1.146-0.505,1.699-0.217c0.97,0.507,1.46,1.598,1.839,2.626c0.463,1.258,0.865,2.607,0.614,3.925
					c0.481-0.674,0.573-1.754,1.37-1.977c0.684-0.191,1.311,0.457,1.622,1.095C200.228,155.732,199.683,158.37,199.114,160.779z"/>
			</g>
			<polygon id="XMLID_905_" style="fill:#462ABC;" points="215.643,167.432 214.323,174.49 213.524,178.761 210.806,193.288 
				193.027,193.288 190.386,179.169 189.507,174.472 188.19,167.432 			"/>
			<path id="XMLID_856_" style="fill:#FBC222;" d="M214.323,174.49l-0.798,4.271c-0.037-0.026-0.077-0.052-0.118-0.074
				c-0.914-0.524-2.108-0.039-2.853,0.706c-0.402,0.403-0.729,0.876-1.154,1.254c-0.426,0.377-0.988,0.66-1.549,0.563
				c-1.185-0.203-1.493-1.771-2.386-2.575c-0.761-0.684-1.937-0.745-2.89-0.376c-0.953,0.369-1.72,1.1-2.386,1.875
				c-0.479,0.559-0.977,1.185-1.695,1.35c-0.971,0.223-1.896-0.498-2.546-1.253c-0.648-0.756-1.261-1.645-2.209-1.946
				c-1.14-0.364-2.34,0.245-3.352,0.884l-0.879-4.697c0.29-0.168,0.574-0.348,0.851-0.523c1.019-0.645,2.23-1.267,3.38-0.901
				c0.948,0.303,1.561,1.192,2.209,1.946c0.65,0.756,1.575,1.475,2.546,1.253c0.718-0.163,1.216-0.79,1.695-1.348
				c0.666-0.776,1.433-1.508,2.386-1.877c0.953-0.369,2.128-0.306,2.89,0.377c0.893,0.803,1.201,2.372,2.386,2.575
				c0.561,0.095,1.124-0.187,1.549-0.564c0.426-0.377,0.753-0.851,1.154-1.253c0.745-0.747,1.938-1.232,2.853-0.708
				C213.818,173.685,214.087,174.07,214.323,174.49z"/>
		</g>
		<g id="XMLID_941_">
			<path id="XMLID_950_" style="fill:#39B597;" d="M329.246,157.469c-0.047,0.03-0.094,0.054-0.144,0.057
				c0.02,0.034,0.04,0.064,0.057,0.097c0.249,0.493,0.249,1.158-0.003,1.742c-0.255,0.587-0.762,1.081-1.319,1.292
				c-0.037,0.013-0.074,0.027-0.114,0.04c0.007,0.034,0.01,0.067,0.01,0.101c0.054,0.809-0.453,1.749-1.202,2.105
				c-0.369,0.174-0.762,0.205-1.148,0.275c-0.097,0.017-0.198,0.04-0.295,0.071c-0.107,0.034-0.211,0.07-0.312,0.117
				c-0.171,0.081-0.339,0.181-0.487,0.312c-0.93,0.809-2.272,0.775-3.044,0.671c-0.084-0.013-0.158-0.027-0.225-0.037
				c-1.108,1.772-2.403,4.095-3.232,6.418c-0.074,1.269-0.175,2.538-0.302,3.803c0.389,1.829,0.577,3.716,0.503,5.683
				c-0.003,0.107-0.094,0.188-0.198,0.185h-0.01c-0.101-0.007-0.178-0.094-0.175-0.198c0.057-1.49-0.04-2.934-0.262-4.343
				c-0.289,2.491-0.681,4.971-1.182,7.435c-0.02,0.097-0.107,0.161-0.201,0.155c-0.01,0-0.017-0.003-0.024-0.003
				c-0.104-0.023-0.171-0.124-0.151-0.228c0.584-2.867,1.02-5.757,1.312-8.66c-0.775-3.608-2.346-7.005-4.229-10.392
				c-0.749,0.184-3.35,0.695-5.058-0.735c-0.473-0.393-1.037-0.594-1.588-0.681c-0.017-0.003-0.034-0.007-0.05-0.007
				c-0.151-0.023-0.305-0.044-0.46-0.067c-0.386-0.054-0.772-0.121-1.148-0.289c-1.094-0.49-1.853-1.846-1.789-3.011
				c0-0.04,0.007-0.08,0.01-0.121c-0.07-0.02-0.141-0.044-0.208-0.067c-0.792-0.302-1.51-0.98-1.886-1.799
				c-0.409-0.889-0.406-1.917,0.017-2.645c-0.05-0.003-0.101-0.02-0.151-0.044c-0.101-0.05-0.191-0.138-0.272-0.231
				c-0.013-0.01-0.02-0.024-0.03-0.034c-0.567-0.678-0.822-1.574-0.866-2.403c-0.04-0.715,0.06-1.396,0.168-2.078
				c0.01-0.07,0.023-0.141,0.034-0.215c0.01-0.044,0.013-0.084,0.02-0.128c0.215-1.373,0.369-2.769,0.463-4.179
				c0.003-0.007,0-0.013,0.003-0.02c0.05,0.017,0.104,0.034,0.158,0.047c0.044,0.013,0.087,0.023,0.131,0.037
				c1.265,0.369,2.534,0.685,3.81,0.943c0.131,0.027,0.262,0.054,0.393,0.08c0.074,0.014,0.144,0.03,0.215,0.044
				c0.584,0.121,1.168,0.262,1.735,0.51c0.765,0.329,1.51,0.883,1.95,1.648c0.057,0.097,0.111,0.208,0.134,0.312
				c0.017,0.077,0.02,0.151,0,0.221c0.054-0.01,0.107-0.017,0.161-0.02c0.792-0.074,1.678,0.275,2.323,0.923
				c0.651,0.651,1.041,1.584,1.03,2.444c0,0.057-0.003,0.114-0.01,0.171c0.05,0.01,0.094,0.027,0.141,0.04
				c1.108,0.356,2.098,1.531,2.175,2.719c0.04,0.587-0.128,1.128-0.235,1.678c-0.03,0.141-0.054,0.285-0.064,0.433
				c-0.013,0.158-0.017,0.319-0.01,0.48c0.017,0.272,0.064,0.544,0.161,0.812c0.705,1.987-0.497,4.122-0.994,4.881
				c-0.037,0.054-0.067,0.097-0.094,0.138c1.715,3.078,3.175,6.169,4.021,9.422c0.07-0.796,0.128-1.591,0.175-2.39
				c-0.144-0.054-0.218-0.211-0.168-0.359c0.07-0.195,0.144-0.393,0.218-0.587c0.285-5.797-0.003-11.614-0.863-17.354
				c-0.997-0.201-4.078-1.01-5.223-3.457c-0.322-0.688-0.849-1.208-1.42-1.594c-0.02-0.013-0.034-0.027-0.054-0.037
				c-0.158-0.104-0.316-0.208-0.477-0.312c-0.406-0.265-0.806-0.54-1.138-0.923c-0.967-1.124-1.108-3.041-0.426-4.313
				c0.02-0.044,0.047-0.084,0.07-0.128c-0.064-0.057-0.134-0.121-0.195-0.185c-0.728-0.752-1.182-1.886-1.175-3.001
				c0.007-1.212,0.554-2.36,1.406-2.954c-0.057-0.03-0.104-0.077-0.148-0.128c-0.084-0.111-0.141-0.258-0.185-0.406
				c-0.003-0.017-0.007-0.034-0.013-0.054c-0.279-1.054-0.097-2.189,0.285-3.145c0.332-0.816,0.802-1.531,1.279-2.236
				c0.047-0.074,0.101-0.148,0.148-0.225c0.034-0.044,0.06-0.087,0.091-0.131c0.947-1.413,1.843-2.883,2.682-4.397
				c0.01-0.013,0.017-0.027,0.023-0.04c0.003-0.007,0.007-0.017,0.013-0.02c0.091,0.081,0.185,0.164,0.279,0.245
				c1.225,1.074,2.484,2.091,3.773,3.048c0.134,0.097,0.268,0.198,0.403,0.295c0.074,0.054,0.144,0.107,0.215,0.164
				c0.591,0.44,1.172,0.903,1.675,1.477c0.685,0.769,1.232,1.779,1.326,2.867c0.01,0.141,0.014,0.292-0.017,0.423
				c-0.02,0.094-0.054,0.178-0.114,0.245c0.067,0.017,0.128,0.037,0.191,0.061c0.923,0.332,1.735,1.188,2.118,2.252
				c0.386,1.071,0.336,2.32-0.128,3.276c-0.027,0.064-0.06,0.128-0.097,0.185c0.047,0.04,0.094,0.081,0.138,0.121
				c1.054,0.98,1.547,2.813,1.014,4.182c-0.265,0.678-0.732,1.198-1.145,1.755c-0.107,0.144-0.205,0.295-0.299,0.453
				c-0.097,0.171-0.185,0.346-0.258,0.53c-0.124,0.312-0.215,0.648-0.249,0.997c-0.225,2.323-2.219,3.974-3.32,4.719
				c-0.312,0.211-0.554,0.349-0.661,0.41c0.802,5.391,1.104,10.845,0.903,16.29c0.789-1.806,1.772-3.535,2.645-4.938
				c-0.342-0.49-1.259-1.99-0.785-3.414c0.131-0.406,0.118-0.822,0.034-1.202c-0.003-0.01-0.003-0.023-0.007-0.034
				c-0.027-0.104-0.05-0.208-0.077-0.315c-0.064-0.265-0.121-0.53-0.107-0.816c0.037-0.836,0.722-1.675,1.494-1.93
				c0.023-0.01,0.05-0.017,0.077-0.027c-0.003-0.047-0.007-0.101-0.007-0.151c-0.01-0.587,0.245-1.229,0.678-1.682
				c0.473-0.493,1.138-0.752,1.719-0.668c-0.013-0.034-0.013-0.07-0.01-0.107c0.007-0.077,0.04-0.161,0.081-0.238
				c0.003-0.007,0.01-0.017,0.013-0.027c0.295-0.54,0.809-0.933,1.336-1.175c0.45-0.208,0.916-0.319,1.386-0.423
				c0.047-0.013,0.097-0.023,0.148-0.034c0.03-0.007,0.057-0.013,0.087-0.02c0.923-0.212,1.846-0.463,2.763-0.755
				c0.02-0.003,0.04-0.01,0.06-0.017c0.003,0,0.01-0.003,0.013-0.003c0.007,0.07,0.014,0.138,0.02,0.208
				c0.084,0.913,0.208,1.816,0.366,2.709c0.017,0.091,0.034,0.185,0.05,0.275c0.01,0.05,0.017,0.101,0.027,0.151
				c0.07,0.406,0.128,0.822,0.114,1.252c-0.017,0.581-0.185,1.205-0.567,1.685C329.363,157.365,329.306,157.426,329.246,157.469z"/>
			<path id="XMLID_949_" style="opacity:0.5;fill:#31A186;" d="M322.892,143.841c-0.265,0.678-0.732,1.198-1.145,1.755
				c-0.107,0.144-0.205,0.295-0.299,0.453c-0.097,0.171-0.185,0.346-0.258,0.53c-0.124,0.312-0.215,0.648-0.249,0.997
				c-0.225,2.323-2.219,3.974-3.32,4.719c0.037-0.299,0.091-0.598,0.168-0.89c0.171-0.658,0.433-1.292,0.51-1.964
				c0.057-0.514,0.003-1.031,0.037-1.541c0.077-1.312,0.705-2.538,0.819-3.847c0.117-1.306-0.594-2.89-1.903-2.964
				c1.135-2.074,0.507-4.941-1.386-6.354c-0.164-0.121-0.339-0.238-0.433-0.42c-0.128-0.242-0.074-0.537-0.037-0.809
				c0.171-1.272-0.111-2.601-0.789-3.692c-0.507-0.816-1.219-1.497-1.668-2.346c-0.255-0.487-0.655-1.44-0.859-2.41
				c0.01-0.013,0.017-0.027,0.023-0.04c0.003-0.007,0.007-0.017,0.013-0.02c0.091,0.081,0.185,0.164,0.279,0.245
				c1.225,1.074,2.484,2.091,3.773,3.048c0.134,0.097,0.268,0.198,0.403,0.295c0.074,0.054,0.144,0.107,0.215,0.164
				c0.591,0.44,1.172,0.903,1.675,1.477c0.685,0.769,1.232,1.779,1.326,2.867c0.01,0.141,0.014,0.292-0.017,0.423
				c-0.02,0.094-0.054,0.178-0.114,0.245c0.067,0.017,0.128,0.037,0.191,0.061c0.923,0.332,1.735,1.188,2.118,2.252
				c0.386,1.071,0.336,2.32-0.128,3.276c-0.027,0.064-0.06,0.128-0.097,0.185c0.047,0.04,0.094,0.081,0.138,0.121
				C322.932,140.639,323.425,142.472,322.892,143.841z"/>
			<path id="XMLID_948_" style="opacity:0.5;fill:#31A186;" d="M329.246,157.469c-0.047,0.03-0.094,0.054-0.144,0.057
				c0.02,0.034,0.04,0.064,0.057,0.097c0.249,0.493,0.249,1.158-0.003,1.742c-0.255,0.587-0.762,1.081-1.319,1.292
				c-0.037,0.013-0.074,0.027-0.114,0.04c0.007,0.034,0.01,0.067,0.01,0.101c0.054,0.809-0.453,1.749-1.202,2.105
				c-0.369,0.174-0.762,0.205-1.148,0.275c-0.097,0.017-0.198,0.04-0.295,0.071c-0.107,0.034-0.211,0.07-0.312,0.117
				c-0.171,0.081-0.339,0.181-0.487,0.312c-0.93,0.809-2.272,0.775-3.044,0.671c0.161-0.352,0.393-0.675,0.688-0.93
				c0.621-0.54,1.45-0.779,2.101-1.279c0.655-0.5,1.094-1.494,0.577-2.131c0.785,0.094,1.611-0.299,2.034-0.97
				c0.426-0.668,0.426-1.581,0.007-2.252c0.842-0.094,1.477-0.849,1.749-1.652c0.275-0.802,0.278-1.665,0.399-2.504
				c0.07-0.487,0.175-1.088,0.46-1.504c0.02-0.03,0.044-0.06,0.071-0.087c0.02-0.003,0.04-0.01,0.06-0.017
				c0.003,0,0.01-0.003,0.013-0.003c0.007,0.07,0.014,0.138,0.02,0.208c0.084,0.913,0.208,1.816,0.366,2.709
				c0.017,0.091,0.034,0.185,0.05,0.275c0.01,0.05,0.017,0.101,0.027,0.151c0.07,0.406,0.128,0.822,0.114,1.252
				c-0.017,0.581-0.185,1.205-0.567,1.685C329.363,157.365,329.306,157.426,329.246,157.469z"/>
			<path id="XMLID_947_" style="opacity:0.5;fill:#31A186;" d="M313.282,163.817c-0.517-1.024-0.853-2.135-0.994-3.273
				c-0.138-1.104-0.094-2.252-0.493-3.293c-0.403-1.037-1.436-1.957-2.531-1.745c-0.094,0.02-0.198,0.047-0.285,0.003
				c-0.141-0.074-0.144-0.269-0.138-0.426c0.044-0.906-0.252-1.836-0.866-2.501c-0.614-0.668-1.554-1.04-2.45-0.906
				c0.044-1.111-0.49-2.232-1.383-2.9c-0.89-0.665-2.074-0.89-2.857-1.675c-0.46-0.463-0.742-1.064-1.051-1.641
				c0.044,0.013,0.087,0.023,0.131,0.037c1.265,0.369,2.534,0.685,3.81,0.943c0.131,0.027,0.262,0.054,0.393,0.08
				c0.074,0.014,0.144,0.03,0.215,0.044c0.584,0.121,1.168,0.262,1.735,0.51c0.765,0.329,1.51,0.883,1.95,1.648
				c0.057,0.097,0.111,0.208,0.134,0.312c0.017,0.077,0.02,0.151,0,0.221c0.054-0.01,0.107-0.017,0.161-0.02
				c0.792-0.074,1.678,0.275,2.323,0.923c0.651,0.651,1.041,1.584,1.03,2.444c0,0.057-0.003,0.114-0.01,0.171
				c0.05,0.01,0.094,0.027,0.141,0.04c1.108,0.356,2.098,1.531,2.175,2.719c0.04,0.587-0.128,1.128-0.235,1.678
				c-0.03,0.141-0.054,0.285-0.064,0.433c-0.013,0.158-0.017,0.319-0.01,0.48c0.017,0.272,0.064,0.544,0.161,0.812
				C314.98,160.923,313.778,163.058,313.282,163.817z"/>
			<g id="XMLID_942_">
				<path id="XMLID_945_" style="fill:#462ABC;" d="M327.452,185.64c0.069,6.155-4.697,7.579-6.837,7.579h-7.182
					c-2.143,0-6.909-1.424-6.84-7.579c0.033-2.865,0.739-6.476,1.484-9.516c0.512-2.068,1.037-3.87,1.379-4.996
					c0.01-0.033,0.02-0.066,0.03-0.098c-0.302-0.213-0.647-0.387-0.939-0.512c-0.417-0.177-0.686-0.571-0.686-1.001
					c0-0.611,0.529-1.106,1.178-1.106h15.969c0.653,0,1.178,0.496,1.178,1.106c0,0.43-0.266,0.824-0.686,1.001
					c-0.292,0.125-0.634,0.299-0.939,0.512c0.01,0.033,0.02,0.066,0.03,0.098c0.345,1.126,0.87,2.928,1.379,4.996
					C326.713,179.164,327.419,182.775,327.452,185.64z"/>
				<path id="XMLID_943_" style="fill:#FBC222;" d="M325.968,176.124h-17.892c0.512-2.068,1.037-3.87,1.379-4.996h15.135
					C324.934,172.255,325.46,174.057,325.968,176.124z"/>
			</g>
		</g>
		<g id="XMLID_185_">
			<polygon id="XMLID_693_" style="fill:#F68080;" points="244.905,252.701 246.159,259.202 247.426,265.768 258.731,258.423 
				256.5,252.549 255.433,249.74 			"/>
			<path id="XMLID_692_" d="M244.905,252.701l1.255,6.501c5.346-0.325,9.034-4.802,10.341-6.654l-1.067-2.809L244.905,252.701z"/>
			<path id="XMLID_691_" style="fill:#F68080;" d="M235.442,244.721c1.656,7.565,7.973,12.61,14.11,11.266
				c6.137-1.343,9.769-8.565,8.113-16.13c-1.656-7.565-7.973-12.61-14.11-11.266C237.418,229.934,233.786,237.156,235.442,244.721z"
				/>
			<path id="XMLID_690_" d="M250.816,241.866c-0.129,0.508-0.207,1.024-0.277,1.459c-0.163,1.012-0.939,2.174-1.933,1.923
				c-0.733-0.185-1.069-1.058-1.056-1.814c0.013-0.756,0.256-1.504,0.178-2.256c-0.078-0.752-0.662-1.552-1.413-1.465
				c-0.494,0.057-0.872,0.471-1.348,0.617c-1.046,0.321-1.991-0.72-2.495-1.691c-0.504-0.971-1.055-2.135-2.132-2.329
				c-1.536-0.276-2.939,1.38-4.543,1.411c-1.435,0.028-2.712-0.525-3.691-1.569c-2.09-2.229-2.197-6.097-0.084-8.352
				c-0.819-1.873-0.363-4.231,1.095-5.664c1.459-1.433,3.824-1.847,5.682-0.995c1.272-1.378,2.69-2.728,4.476-3.301
				c1.785-0.573,4.022-0.142,5.019,1.446c1.517-1.854,4.001-2.869,6.382-2.608c2.381,0.261,4.586,1.791,5.664,3.93
				c2.935,0.186,5.829,1.769,7.264,4.336c1.435,2.567,1.174,6.076-0.877,8.182c1.105,1.874,2.152,3.913,2.093,6.088
				c-0.059,2.175-1.62,4.455-3.793,4.561c0.502,1.628,0.405,3.501-0.555,4.908s-2.874,2.194-4.464,1.584
				c0.321,1.154-0.253,2.458-1.251,3.12c-0.998,0.662-2.335,0.711-3.444,0.259c-1.469-0.599-2.546-2.064-2.68-3.644
				c-0.255-3.019,2.863-4.097,2.626-7.258c-0.098-1.311-0.542-3.065-2.119-3.141C251.705,239.533,251.119,240.676,250.816,241.866z"
				/>
			<g id="XMLID_607_">
				<path id="XMLID_614_" style="fill:#F68080;" d="M78.272,341.145c-3.683,4.308-4.693,21.167-4.693,21.167l3.997-0.93
					c1.326-0.392,3.664-0.806,5.821-1.142c2.591-0.406,4.92-0.698,4.92-0.698l-0.297-16.449c-2.12-0.185-4.036-0.511-5.595-0.844
					C79.874,341.708,78.272,341.145,78.272,341.145z"/>
				<path id="XMLID_613_" d="M82.425,342.249c-0.324,7.039,0.402,13.931,0.972,17.991c2.591-0.406,4.92-0.698,4.92-0.698
					l-0.297-16.449C85.9,342.909,83.984,342.582,82.425,342.249z"/>
				<path id="XMLID_612_" d="M81.421,340.369c0.204-0.286-7.352-5.338-10.473-12.703c-3.12-7.365-3.662-9.848-7.707-9.436
					c0,0,5.879,46.551,6.288,46.496c0.409-0.055,4.681-0.351,9.31-2.926C78.839,361.8,77.821,345.406,81.421,340.369z"/>
				<path id="XMLID_608_" style="fill:#39B597;" d="M57.937,319.451l6.195,45.809c0.099,0.734,0.775,1.248,1.508,1.149l3.742-0.506
					c0.734-0.099,1.248-0.775,1.149-1.508l-6.195-45.809c-0.099-0.734-0.774-1.248-1.508-1.149l-3.742,0.506
					C58.352,318.042,57.838,318.717,57.937,319.451z"/>
			</g>
			<path id="XMLID_606_" d="M205.98,291.48l-2.68-4.98c0,0-5.449,2.886-7.319,17.83l5.32-0.769L205.98,291.48z"/>
			<path id="XMLID_605_" style="fill:#F68080;" d="M169.473,290.668c7.775,5.525,15.393,4.279,24.655,7.088
				c0.09,0.028,0.415,0.2,0.894,0.464c2.474,1.382,9.085,5.324,9.085,5.324l3.751-11.665l-6.823-3.111l-3.665-1.672
				c0,0-1.442-3.446-2.987-5.351c-1.545-1.905-3.809-5.137-4.007-8.019c-0.199-2.882-3.037-1.559-3.678,0.885
				c-0.641,2.442-0.391,5.685-0.391,5.685s-3.512,0.965-8.029-2.19c-4.515-3.153-4.008-3.894-6.038-4.269
				c-2.027-0.375-2.112,1.77-1.507,2.605c0,0-2.541-1.71-3.617-1.551c-1.449,0.214-2.209,2.408-0.052,4.513
				c-0.097-0.072-1.314-0.943-2.442,0.089c-1.178,1.078-0.283,2.373,0.882,3.246c0,0-1.224-0.499-1.852-0.061
				C163.026,283.115,161.699,285.143,169.473,290.668z"/>
			<path id="XMLID_604_" d="M195.022,298.22c2.474,1.382,9.085,5.324,9.085,5.324l3.751-11.665l-6.823-3.111
				C199.591,291.526,197.551,294.985,195.022,298.22z"/>
			
				<path id="XMLID_603_" style="fill:none;stroke:#231F20;stroke-width:0.3491;stroke-linecap:round;stroke-linejoin:round;stroke-miterlimit:10;" d="
				M180.198,283.258c0,0-5.755-0.741-9.464-6.815"/>
			
				<path id="XMLID_602_" style="fill:none;stroke:#231F20;stroke-width:0.3491;stroke-linecap:round;stroke-linejoin:round;stroke-miterlimit:10;" d="
				M178.079,286.85c0,0-3.52-0.304-11.007-7.441"/>
			
				<path id="XMLID_600_" style="fill:none;stroke:#231F20;stroke-width:0.3491;stroke-linecap:round;stroke-linejoin:round;stroke-miterlimit:10;" d="
				M175.824,289.837c0,0-5.851-1.856-10.32-7.098"/>
			<path id="XMLID_599_" style="fill:#462ABC;" d="M86.655,338.589c9.236,0.455,68.322-0.66,86.261-1.014
				c3.972-1.01,8.296-1.875,12.484-2.6c11.136-1.921,21.305-2.846,21.305-2.846s33.747,12.578,49.345,16.056
				c0,0-0.61,1.468-1.808,3.531c-2.821,4.856-8.893,13.001-17.88,13.001c-12.805,0-58.98,0-58.98,0l-0.002-0.001l-88.491-1.554
				C83.819,355.818,86.655,338.589,86.655,338.589z"/>
			<path id="XMLID_598_" d="M185.4,334.976c26.967,14.696,57.193,16.597,68.841,16.74c1.198-2.063,1.808-3.531,1.808-3.531
				c-15.598-3.478-49.345-16.056-49.345-16.056S196.535,333.054,185.4,334.976z"/>
			
				<path id="XMLID_596_" style="fill:none;stroke:#231F20;stroke-width:0.3491;stroke-linecap:round;stroke-linejoin:round;stroke-miterlimit:10;" d="
				M161.266,356.006c0.464-0.213,0.601,3.838,4.219,8.449c0,0-6.801-1.405-11.801-8.739"/>
			<path id="XMLID_593_" style="fill:#39B597;" d="M199.206,331.776c0.657-0.183,30.355,19.55,59.442,18.042
				c0,0,9.399-18.285,14.377-32.496c2.661-7.593,5.459-22.357,3.882-35.657c0-0.002,0-0.002,0-0.002
				c-0.534-4.506-1.572-8.846-3.288-12.68c-2.694-6.023-7.064-10.805-13.788-13.039l-0.002,0.002
				c-0.176,0.069-10.382,4.22-16.107,11.179c-0.634,0.77-1.214,1.577-1.718,2.414c-2.449,4.067-8.329,13.859-14.359,23.629
				c-5.901,9.559-11.947,19.094-15.066,23.231c-0.335,0.444-0.633,0.823-0.897,1.135
				C206.441,323.759,198.552,331.958,199.206,331.776z"/>
			<path id="XMLID_586_" style="opacity:0.5;fill:#31A186;" d="M212.58,316.399c6.176,3.177,23.994,12.063,29.316,11.684
				c6.474-0.465,20.502-12.488,29.441-30.831c3.02-6.194,4.687-11.404,5.57-15.587c0-0.002,0-0.002,0-0.002
				c-0.534-4.506-1.572-8.846-3.288-12.68l-4.439-0.25l-1.047-6.255c0,0-7.739-1.833-15.445,9.61
				c-7.709,11.443-14.421,25.316-14.421,25.316l-10.62-4.236C221.745,302.727,215.699,312.263,212.58,316.399z"/>
			<path id="XMLID_189_" style="fill:#39B597;" d="M239.882,299.944c0,0,15.85-37.495,27.14-37.53
				c11.29-0.034,19.114,20.611-16.257,57.147c0,0-5.781,7.469-12.643,4.757c-6.862-2.711-42.141-19.987-42.141-19.987
				s6.874-9.698,7.319-17.83L239.882,299.944z"/>
			
				<path id="XMLID_188_" style="fill:none;stroke:#231F20;stroke-width:0.3491;stroke-linecap:round;stroke-linejoin:round;stroke-miterlimit:10;" d="
				M245.921,306.694c0,0-1.734-4.213-6.039-6.751c0,0,6.868,1.749,9.836,7.235"/>
		</g>
		<path id="XMLID_946_" style="fill:#FBC222;" d="M346.339,340.119c-2.351,11.519-7.531,22.666-15.996,30.827
			c-0.013,0.013-0.026,0.027-0.04,0.04c-2.722,2.616-6.385,4.014-10.161,4.014H218.137c-2.53,0-4.908-0.629-6.982-1.729
			c-5.584-2.947-9.022-9.293-7.604-15.943c0.768-3.623,2.497-7.167,5.372-10.419c4.981-5.643,12.34-8.512,18.301-13.095
			c13.95-10.73,18.785-29.337,28.919-43.723c11.538-16.387,27.833-31.655,49.274-30.767c3.908,0.159,7.783,0.888,11.499,2.12
			c9.77,3.239,18.407,9.955,23.382,18.957c4.147,7.491,5.729,16.109,6.716,24.614C348.366,316.691,348.69,328.6,346.339,340.119z"/>
		<path id="XMLID_944_" style="opacity:0.5;fill:#FBC222;" d="M316.916,261.442c-6.531,2.855-12.459,6.816-18.096,12.837
			c-9.359,10.002-15.725,22.408-21.209,34.96c-5.127,11.717-10.128,24.408-20.6,31.748c-11.704,8.207-28.244,8.16-38.557,18.056
			c-3.935,3.775-6.399,8.862-7.299,14.228c-5.584-2.947-9.022-9.293-7.604-15.943c0.768-3.623,2.497-7.167,5.372-10.419
			c4.981-5.643,12.34-8.512,18.301-13.095c13.95-10.73,18.785-29.337,28.919-43.723c11.538-16.387,27.833-31.655,49.274-30.767
			C309.326,259.482,313.201,260.21,316.916,261.442z"/>
		<g id="XMLID_684_">
			<g id="XMLID_923_">
				<path id="XMLID_939_" style="fill:#39B597;" d="M244.906,167.321c-1.214,2.691-4.144,4.51-7.093,4.402
					c-0.281-0.01-0.572-0.033-0.83,0.084c-0.666,0.305-0.624,1.256-0.469,1.974c0.431,2.011,0.863,4.018,1.298,6.029
					c0.023,0.108,0.047,0.216,0.066,0.323c0.192,0.97,0.3,2.02-0.253,2.822c-0.731,1.05-2.222,1.153-3.502,1.148
					c-1.852-0.005-2.466-0.684-2.7-1.716c-0.22-0.97-0.108-2.241-0.375-3.558c-0.366-1.791-0.956-3.525-1.336-5.311
					c-0.408-1.913-0.755-3.839-0.998-5.775c-0.061-0.511-0.117-1.017-0.164-1.528c-0.647-0.028-1.285-0.174-1.866-0.46
					c-1.289-0.633-2.255-1.889-2.536-3.296c-0.131-0.656-0.117-1.331-0.094-1.997c0.042-1.134,0.127-2.274,0.389-3.375
					c0.098-0.403,0.225-0.811,0.497-1.116c0.15-0.164,0.352-0.3,0.563-0.356c0.183-0.051,0.375-0.051,0.548,0.023
					c0.563,0.239,0.638,1.003,0.553,1.608c-0.131,0.952-0.431,1.885-0.441,2.846c-0.009,0.961,0.361,2.011,1.21,2.456
					c0.258,0.136,0.539,0.202,0.83,0.23c0.056,0.005,0.117,0.009,0.173,0.014c-0.028-2.306,0.15-4.613,0.619-6.877
					c0.169-0.816,0.384-1.645,0.863-2.325c0.478-0.685,1.266-1.205,2.096-1.144c0.009,0,0.019,0,0.028,0.005
					c0.699,0.056,1.308,0.501,1.772,1.027c1.327,1.495,1.678,3.619,1.692,5.616c0.019,1.997-0.244,4.013,0.08,5.986
					c0.066,0.403,0.178,0.839,0.511,1.078c0.197,0.141,0.431,0.183,0.67,0.159c0.295-0.038,0.591-0.174,0.825-0.356
					c0.872-0.675,1.2-1.828,1.346-2.916c0.145-1.088,0.159-2.222,0.605-3.225c0.441-1.008,1.481-1.866,2.56-1.655
					c0.577,0.113,1.059,0.502,1.463,0.928c0.056,0.061,0.112,0.122,0.164,0.183C245.571,161.419,246.082,164.705,244.906,167.321z"
					/>
				<path id="XMLID_938_" style="opacity:0.5;fill:#31A186;" d="M236.706,166.318c-0.272,0.323-0.609,0.553-1.027,0.605
					c-0.652,0.084-1.294-0.319-1.664-0.863c-0.37-0.548-0.516-1.21-0.624-1.861c-0.389-2.438-0.309-4.927-0.534-7.388
					c-0.131-1.425-0.328-3.005-0.877-4.36c0.699,0.056,1.308,0.501,1.772,1.027c1.327,1.495,1.678,3.619,1.692,5.616
					c0.019,1.997-0.244,4.013,0.08,5.986c0.066,0.403,0.178,0.839,0.511,1.078C236.233,166.299,236.467,166.341,236.706,166.318z"/>
				<path id="XMLID_925_" style="opacity:0.5;fill:#31A186;" d="M244.906,167.321c-1.214,2.691-4.144,4.51-7.093,4.402
					c-0.281-0.01-0.572-0.033-0.83,0.084c-0.666,0.305-0.624,1.256-0.469,1.974c0.431,2.011,0.863,4.018,1.298,6.029
					c0.023,0.108,0.047,0.216,0.066,0.323c-0.216,0.033-0.436,0.023-0.656-0.033c-1.172-0.286-1.716-1.617-2.021-2.785
					c-0.253-0.989-0.464-1.983-0.628-2.991c-0.122-0.769-0.22-1.556-0.08-2.325c0.141-0.764,0.558-1.519,1.242-1.889
					c0.609-0.333,1.336-0.328,2.025-0.408c2.831-0.342,5.372-2.456,6.226-5.175c0.431-1.383,0.417-2.888,0.019-4.28
					c-0.094-0.324-0.202-0.652-0.338-0.971C245.571,161.419,246.082,164.705,244.906,167.321z"/>
				<path id="XMLID_924_" style="opacity:0.5;fill:#31A186;" d="M228.339,163.228c-0.042,0.23-0.314,0.333-0.548,0.366
					c-0.553,0.08-1.153-0.009-1.585-0.361c-0.708-0.567-0.773-1.603-0.75-2.508c0.023-1.125,0.089-2.255,0.192-3.375
					c0.052-0.567-0.103-1.153-0.145-1.734c0.183-0.051,0.375-0.051,0.548,0.023c0.563,0.239,0.638,1.003,0.553,1.608
					c-0.131,0.952-0.431,1.885-0.441,2.846c-0.009,0.961,0.361,2.011,1.21,2.456c0.258,0.136,0.539,0.202,0.83,0.23
					c0.005,0.005,0.005,0.014,0.009,0.019C228.287,162.933,228.367,163.078,228.339,163.228z"/>
			</g>
			<g id="XMLID_920_">
				<path id="XMLID_922_" style="fill:#FBC222;" d="M242.986,175.842v8.004c0,3.735-1.571,7.032-3.974,9.046
					c-0.328,0.267-0.717,0.396-1.098,0.396h-8.733c-0.381,0-0.77-0.129-1.098-0.396c-2.403-2.014-3.974-5.31-3.974-9.046v-8.004
					H242.986z"/>
				<rect id="XMLID_921_" x="224.109" y="178.252" style="fill:#462ABC;" width="18.877" height="2.134"/>
			</g>
		</g>
		<g id="XMLID_940_">
			<rect id="XMLID_955_" x="249.768" y="170.196" style="fill:#F6921E;" width="44.861" height="23.023"/>
			<polygon id="XMLID_954_" points="294.629,182.304 294.629,187.086 249.768,186.21 249.768,182.304 			"/>
			<polygon id="XMLID_953_" points="294.629,170.196 294.629,175.014 249.768,173.697 249.768,170.196 			"/>
			<rect id="XMLID_952_" x="249.768" y="178.236" style="fill:#FFFFFF;" width="44.861" height="7.621"/>
			<rect id="XMLID_951_" x="248.18" y="168.677" style="fill:#F6921E;" width="48.037" height="4.349"/>
		</g>
		<g id="XMLID_928_">
			<g id="XMLID_930_">
				<g id="XMLID_935_">
					<polygon id="XMLID_937_" style="fill:#666666;" points="191.434,197.004 190.859,198.997 190.147,201.471 185.488,201.471 
						184.775,198.997 184.2,197.004 					"/>
					<polygon id="XMLID_936_" points="191.434,197.004 190.859,198.997 184.775,198.997 184.2,197.004 					"/>
				</g>
				<g id="XMLID_931_">
					<polygon id="XMLID_934_" style="fill:#666666;" points="341.903,197.004 341.328,198.997 340.615,201.471 335.956,201.471 
						335.243,198.997 334.668,197.004 					"/>
					<polygon id="XMLID_932_" points="341.903,197.004 341.328,198.997 335.243,198.997 334.668,197.004 					"/>
				</g>
			</g>
			<rect id="XMLID_929_" x="178.035" y="192.213" style="fill:#999999;" width="170.033" height="5.874"/>
		</g>
	</g>
</g>
</svg>
